<?xml version="1.0" encoding="UTF-8" standalone="no"?>
<!-- Generator: Adobe Illustrator 14.0.0, SVG Export Plug-In . SVG Version: 6.00 Build 43363)  -->

<svg
   xmlns:dc="http://purl.org/dc/elements/1.1/"
   xmlns:cc="http://creativecommons.org/ns#"
   xmlns:rdf="http://www.w3.org/1999/02/22-rdf-syntax-ns#"
   xmlns:svg="http://www.w3.org/2000/svg"
   xmlns="http://www.w3.org/2000/svg"
   xmlns:sodipodi="http://sodipodi.sourceforge.net/DTD/sodipodi-0.dtd"
   xmlns:inkscape="http://www.inkscape.org/namespaces/inkscape"
   version="1.0"
   id="Layer_1"
   x="0px"
   y="0px"
   width="107.01757"
   height="106.03796"
   viewBox="0 0 107.01757 106.03795"
   enable-background="new 0 0 100 76.434"
   xml:space="preserve"
   inkscape:version="0.48.1 r9760"
   sodipodi:docname="souhait_add.svg"><metadata
   id="metadata74"><rdf:RDF><cc:Work
       rdf:about=""><dc:format>image/svg+xml</dc:format><dc:type
         rdf:resource="http://purl.org/dc/dcmitype/StillImage" /><dc:title></dc:title></cc:Work></rdf:RDF></metadata><defs
   id="defs72">
	
	
	
	
	
	
	
	
	
	
<inkscape:perspective
   id="perspective12"
   inkscape:persp3d-origin="36.023678 : 42.499278 : 1"
   inkscape:vp_z="72.047356 : 63.748917 : 1"
   inkscape:vp_y="0 : 1000 : 0"
   inkscape:vp_x="0 : 63.748917 : 1"
   sodipodi:type="inkscape:persp3d" /></defs><sodipodi:namedview
   pagecolor="#ffffff"
   bordercolor="#666666"
   borderopacity="1"
   objecttolerance="10"
   gridtolerance="10"
   guidetolerance="10"
   inkscape:pageopacity="0"
   inkscape:pageshadow="2"
   inkscape:window-width="1280"
   inkscape:window-height="776"
   id="namedview70"
   showgrid="false"
   fit-margin-top="0"
   fit-margin-left="0"
   fit-margin-right="0"
   fit-margin-bottom="0"
   inkscape:zoom="3.3885444"
   inkscape:cx="45.468085"
   inkscape:cy="30.343077"
   inkscape:window-x="0"
   inkscape:window-y="24"
   inkscape:window-maximized="1"
   inkscape:current-layer="Layer_1" />

<g
   id="g3188"
   transform="translate(-4.5319137,-11.393856)"><g
     id="g62"
     transform="matrix(0.4,0,0,0.4,4.5959137,25.431809)">
	<polygon
   points="125,57.582 187.579,120.75 212.928,146.337 250.159,146.337 208.717,104.505 208.717,68.996 182.764,68.996 182.764,78.308 125,20 62.42,83.168 -0.16,146.337 37.072,146.337 62.42,120.75 "
   id="polygon64" />
	<path
   d="M 125,61.832 62.42,125 l -21.138,21.337 0.055,0 0,83.663 167.325,0 0,-83.663 0.055,0 L 187.579,125 125,61.832 z m -39.944,132.004 -11.792,0 0,-10.667 11.792,0 0,10.667 z m 0,-12.918 -11.792,0 0,-12.918 11.792,0 0,12.918 z m 14.044,12.918 -11.792,0 0,-10.667 11.792,0 0,10.667 z m 0,-12.918 -11.792,0 0,-12.918 11.792,0 0,12.918 z m 79.9,42.415 -29.333,0 0,-55.333 29.333,0 0,55.333 z"
   id="path66"
   inkscape:connector-curvature="0" />
</g><path
     sodipodi:nodetypes="ccccccccccccccccccccccccccccscccccccccccccccccc"
     style="fill:#008000"
     inkscape:connector-curvature="0"
     id="path5"
     d="m 103.25766,44.522398 c 0.32586,-0.20958 0.64315,-0.430411 0.95401,-0.660388 0.0942,-0.06858 0.18566,-0.139959 0.27847,-0.211353 0.30025,-0.230606 0.59624,-0.464009 0.88009,-0.713587 0.064,-0.05492 0.1236,-0.115462 0.18684,-0.171082 0.55496,-0.499062 1.07787,-1.029709 1.56801,-1.594058 0.0722,-0.08326 0.15154,-0.163752 0.22163,-0.249121 0.19417,-0.231242 0.37555,-0.472289 0.55622,-0.712624 0.13727,-0.180618 0.27313,-0.361225 0.40329,-0.547447 0.15673,-0.226017 0.3085,-0.455533 0.4567,-0.688558 0.14259,-0.225913 0.27809,-0.454602 0.41005,-0.685387 0.12358,-0.215166 0.24788,-0.428216 0.36294,-0.648977 0.17152,-0.33078 0.32814,-0.669229 0.47907,-1.011878 0.0779,-0.17594 0.15795,-0.349773 0.23018,-0.528499 0.17641,-0.43547 0.33509,-0.878589 0.47674,-1.330068 0.056,-0.177899 0.1013,-0.36067 0.1516,-0.539943 0.0971,-0.347912 0.18792,-0.699312 0.26449,-1.056266 0.0417,-0.193351 0.0799,-0.387384 0.11452,-0.583512 0.0673,-0.371735 0.12039,-0.746195 0.16427,-1.125536 0.0206,-0.174812 0.0441,-0.34823 0.0598,-0.523712 0.0476,-0.554029 0.0767,-1.113579 0.0725,-1.67925 -0.0722,-9.925395 -8.20637,-17.941058 -18.131053,-17.866785 -0.56567,0.0042 -1.12402,0.04219 -1.678,0.09717 -0.17523,0.01826 -0.34829,0.04428 -0.52278,0.06748 -0.37794,0.05015 -0.75229,0.108056 -1.123,0.180783 -0.1956,0.0375 -0.38905,0.07852 -0.58177,0.123068 -0.35508,0.08251 -0.70512,0.177008 -1.05227,0.279968 -0.17923,0.05223 -0.36131,0.100236 -0.53766,0.159515 -0.44935,0.14826 -0.89079,0.314139 -1.32292,0.496215 -0.17765,0.07485 -0.35029,0.157432 -0.52507,0.237913 -0.34039,0.155945 -0.6758,0.316803 -1.00473,0.493878 -0.21835,0.117572 -0.43025,0.245703 -0.64358,0.37243 -0.22953,0.136039 -0.45691,0.274184 -0.67929,0.42007 -0.23154,0.150903 -0.45739,0.306007 -0.68178,0.466758 -0.18429,0.132878 -0.36217,0.272074 -0.54147,0.41128 -0.23836,0.184895 -0.47672,0.36979 -0.70438,0.566628 -0.0843,0.07133 -0.16365,0.15182 -0.24584,0.225257 -0.55709,0.498371 -1.08001,1.029018 -1.57087,1.591251 -0.0547,0.06404 -0.11434,0.124586 -0.16832,0.189331 -0.24538,0.28748 -0.47441,0.586862 -0.70059,0.890465 -0.0693,0.09314 -0.13935,0.185583 -0.20724,0.281543 -0.22539,0.314204 -0.44153,0.634705 -0.64631,0.963607 -0.0405,0.06535 -0.0782,0.1321 -0.11875,0.198867 -1.6677,2.752356 -2.63545,5.97264 -2.60944,9.419687 0.0722,9.925396 8.20638,17.941059 18.13105,17.866786 3.44776,-0.02531 6.652793,-1.039522 9.380363,-2.747455 0.0633,-0.04431 0.1295,-0.08298 0.19425,-0.124464 z" /><path
     sodipodi:nodetypes="ccccccccccccccc"
     d="m 91.317407,31.660445 -8.5508,0.06348 -0.0164,-2.23864 -0.0166,-2.262681 8.55081,-0.06206 -0.0628,-8.550105 4.49921,-0.03232 0.0628,8.54869 8.550813,-0.06206 0.033,4.499906 -8.550803,0.06348 0.0628,8.54869 -4.4992,0.03374 -0.0628,-8.550105 z"
     id="path3030"
     inkscape:connector-curvature="0"
     style="fill:#ffffff;stroke:#ffffff;stroke-width:1;stroke-opacity:1" /></g></svg>