<?xml version="1.0" encoding="UTF-8" standalone="no"?>
<svg
   xmlns:dc="http://purl.org/dc/elements/1.1/"
   xmlns:cc="http://creativecommons.org/ns#"
   xmlns:rdf="http://www.w3.org/1999/02/22-rdf-syntax-ns#"
   xmlns:svg="http://www.w3.org/2000/svg"
   xmlns="http://www.w3.org/2000/svg"
   xmlns:sodipodi="http://sodipodi.sourceforge.net/DTD/sodipodi-0.dtd"
   xmlns:inkscape="http://www.inkscape.org/namespaces/inkscape"
   version="1.1"
   id="Layer_1"
   x="0px"
   y="0px"
   width="100px"
   height="100px"
   viewBox="0 0 100 100"
   enable-background="new 0 0 100 100"
   xml:space="preserve"
   inkscape:version="0.48.1 r9760"
   sodipodi:docname="souhait.svg"
   inkscape:export-filename="/home/gcoulais/Documents/ACSI/ProjetTuteure/imgs/souhait.png"
   inkscape:export-xdpi="88.709999"
   inkscape:export-ydpi="88.709999"><metadata
   id="metadata3174"><rdf:RDF><cc:Work
       rdf:about=""><dc:format>image/svg+xml</dc:format><dc:type
         rdf:resource="http://purl.org/dc/dcmitype/StillImage" /><dc:title></dc:title></cc:Work></rdf:RDF></metadata><defs
   id="defs3172" /><sodipodi:namedview
   pagecolor="#ffffff"
   bordercolor="#666666"
   borderopacity="1"
   objecttolerance="10"
   gridtolerance="10"
   guidetolerance="10"
   inkscape:pageopacity="0"
   inkscape:pageshadow="2"
   inkscape:window-width="640"
   inkscape:window-height="480"
   id="namedview3170"
   showgrid="false"
   inkscape:zoom="2.88"
   inkscape:cx="50"
   inkscape:cy="50"
   inkscape:window-x="316"
   inkscape:window-y="69"
   inkscape:window-maximized="0"
   inkscape:current-layer="Layer_1" />
<g
   id="g3148">
	<path
   fill="#000000"
   d="M83.58,54.575c0,4.083-3.301,7.393-7.369,7.393h-25.49c-4.07,0-7.371-3.31-7.371-7.393v-5.082   c0-4.083,3.3-7.392,7.371-7.392h25.49c4.068,0,7.369,3.31,7.369,7.392V54.575z"
   id="path3150" />
	<path
   fill="#000000"
   d="M97.25,85.376c0,3.316-2.689,6.006-6.006,6.006l0,0c-3.316,0-6.006-2.689-6.006-6.006V48.263   c0-3.317,2.689-6.007,6.006-6.007l0,0c3.316,0,6.006,2.689,6.006,6.007V85.376z"
   id="path3152" />
	<path
   fill="#000000"
   d="M13.012,83.833c0,4.169-2.689,7.549-6.006,7.549l0,0C3.688,91.382,1,88.002,1,83.833V37.178   c0-4.169,2.688-7.55,6.006-7.55l0,0c3.317,0,6.006,3.38,6.006,7.55V83.833z"
   id="path3154" />
	<path
   fill="#000000"
   d="M14.768,77.444c-6.285,0-11.38-2.689-11.38-6.006l0,0c0-3.316,5.095-6.005,11.38-6.005H85.1   c6.287,0,11.381,2.688,11.381,6.005l0,0c0,3.316-5.094,6.006-11.381,6.006H14.768z"
   id="path3156" />
	<polygon
   fill="#000000"
   points="83.545,52.191 83.545,62.122 43.042,62.122 43.042,42.102 51.643,42.102  "
   id="polygon3158" />
	<path
   fill="#000000"
   d="M41.339,58.887c0,1.617-1.272,2.927-2.841,2.927H17.856c-1.569,0-2.842-1.31-2.842-2.927l0,0   c0-1.615,1.272-2.925,2.842-2.925h20.642C40.067,55.962,41.339,57.271,41.339,58.887L41.339,58.887z"
   id="path3160" />
	<path
   fill="#000000"
   d="M41.502,57.8c0,2.133-1.621,3.86-3.619,3.86l0,0c-1.999,0-3.619-1.728-3.619-3.86V45.973   c0-2.132,1.62-3.86,3.619-3.86l0,0c1.998,0,3.619,1.728,3.619,3.86V57.8z"
   id="path3162" />
	<circle
   fill="#000000"
   cx="24.254"
   cy="45.334"
   r="9.086"
   id="circle3164" />
	<path
   fill="#000000"
   d="M56.574,17.426c0,0-1.381-3.429-6.43-3.237c0,0-7.286,0.57-7.286,7.476c0,0,0.096,7.334,7.477,7.334   c7.381,0,27.953,0,27.953,0s6.906,0.667,6.906-7.286c0,0,0.143-6.858-6.953-6.955c0,0-2.047-0.142-3.191,0.573   c0,0-1.236-9.191-11.332-9.145c0,0-7.193-0.428-10.908,8.764"
   id="path3166" />
	<circle
   fill="#000000"
   cx="37.987"
   cy="32.817"
   r="3.696"
   id="circle3168" />
</g>
</svg>