<?xml version="1.0" encoding="UTF-8" standalone="no"?>
<svg
   xmlns:dc="http://purl.org/dc/elements/1.1/"
   xmlns:cc="http://creativecommons.org/ns#"
   xmlns:rdf="http://www.w3.org/1999/02/22-rdf-syntax-ns#"
   xmlns:svg="http://www.w3.org/2000/svg"
   xmlns="http://www.w3.org/2000/svg"
   xmlns:sodipodi="http://sodipodi.sourceforge.net/DTD/sodipodi-0.dtd"
   xmlns:inkscape="http://www.inkscape.org/namespaces/inkscape"
   version="1.1"
   id="Layer_1"
   x="0px"
   y="0px"
   width="100.1276"
   height="84"
   viewBox="0 0 250.319 210"
   enable-background="new 0 0 250 250"
   xml:space="preserve"
   inkscape:version="0.47+devel r9517"
   sodipodi:docname="bien.svg"><metadata
   id="metadata72"><rdf:RDF><cc:Work
       rdf:about=""><dc:format>image/svg+xml</dc:format><dc:type
         rdf:resource="http://purl.org/dc/dcmitype/StillImage" /></cc:Work></rdf:RDF></metadata><defs
   id="defs70" /><sodipodi:namedview
   pagecolor="#ffffff"
   bordercolor="#666666"
   borderopacity="1"
   objecttolerance="10"
   gridtolerance="10"
   guidetolerance="10"
   inkscape:pageopacity="0"
   inkscape:pageshadow="2"
   inkscape:window-width="1278"
   inkscape:window-height="861"
   id="namedview68"
   showgrid="false"
   fit-margin-top="0"
   fit-margin-left="0"
   fit-margin-right="0"
   fit-margin-bottom="0"
   inkscape:zoom="2.59"
   inkscape:cx="50.064"
   inkscape:cy="42"
   inkscape:window-x="0"
   inkscape:window-y="24"
   inkscape:window-maximized="0"
   inkscape:current-layer="Layer_1" />
<g
   id="g62"
   transform="translate(0.16,-20)">
	<polygon
   points="182.764,78.308 125,20 62.42,83.168 -0.16,146.337 37.072,146.337 62.42,120.75 125,57.582 187.579,120.75 212.928,146.337 250.159,146.337 208.717,104.505 208.717,68.996 182.764,68.996 "
   id="polygon64" />
	<path
   d="M 125,61.832 62.42,125 l -21.138,21.337 0.055,0 0,83.663 167.325,0 0,-83.663 0.055,0 L 187.579,125 125,61.832 z m -39.944,132.004 -11.792,0 0,-10.667 11.792,0 0,10.667 z m 0,-12.918 -11.792,0 0,-12.918 11.792,0 0,12.918 z m 14.044,12.918 -11.792,0 0,-10.667 11.792,0 0,10.667 z m 0,-12.918 -11.792,0 0,-12.918 11.792,0 0,12.918 z m 79.9,42.415 -29.333,0 0,-55.333 29.333,0 0,55.333 z"
   id="path66"
   inkscape:connector-curvature="0" />
</g>
</svg>