<?xml version="1.0" encoding="UTF-8" standalone="no"?>
<!-- Generator: Adobe Illustrator 14.0.0, SVG Export Plug-In . SVG Version: 6.00 Build 43363)  -->

<svg
   xmlns:dc="http://purl.org/dc/elements/1.1/"
   xmlns:cc="http://creativecommons.org/ns#"
   xmlns:rdf="http://www.w3.org/1999/02/22-rdf-syntax-ns#"
   xmlns:svg="http://www.w3.org/2000/svg"
   xmlns="http://www.w3.org/2000/svg"
   xmlns:sodipodi="http://sodipodi.sourceforge.net/DTD/sodipodi-0.dtd"
   xmlns:inkscape="http://www.inkscape.org/namespaces/inkscape"
   version="1.0"
   id="Layer_1"
   x="0px"
   y="0px"
   width="114.81858"
   height="125.30573"
   viewBox="0 0 114.81858 125.30573"
   enable-background="new 0 0 100 76.434"
   xml:space="preserve"
   inkscape:version="0.47+devel r9517"
   sodipodi:docname="noun_project_419.svg"><metadata
   id="metadata74"><rdf:RDF><cc:Work
       rdf:about=""><dc:format>image/svg+xml</dc:format><dc:type
         rdf:resource="http://purl.org/dc/dcmitype/StillImage" /><dc:title></dc:title></cc:Work></rdf:RDF></metadata><defs
   id="defs72">
	
	
	
	
	
	
	
	
	
	
<inkscape:perspective
   id="perspective12"
   inkscape:persp3d-origin="36.023678 : 42.499278 : 1"
   inkscape:vp_z="72.047356 : 63.748917 : 1"
   inkscape:vp_y="0 : 1000 : 0"
   inkscape:vp_x="0 : 63.748917 : 1"
   sodipodi:type="inkscape:persp3d" /></defs><sodipodi:namedview
   pagecolor="#ffffff"
   bordercolor="#666666"
   borderopacity="1"
   objecttolerance="10"
   gridtolerance="10"
   guidetolerance="10"
   inkscape:pageopacity="0"
   inkscape:pageshadow="2"
   inkscape:window-width="1532"
   inkscape:window-height="928"
   id="namedview70"
   showgrid="false"
   fit-margin-top="0"
   fit-margin-left="0"
   fit-margin-right="0"
   fit-margin-bottom="0"
   inkscape:zoom="3.3885444"
   inkscape:cx="49.999999"
   inkscape:cy="38.216999"
   inkscape:window-x="0"
   inkscape:window-y="24"
   inkscape:window-maximized="0"
   inkscape:current-layer="Layer_1" />
<path
   d="m 98.573999,116.86174 c -2.116,-10.919 -31.236,-9.758 -38.254,-18.310005 -1.48,-1.805 -1.48,-1.805 -0.488,-8.507 1.694,-7.502 3.229,-2.846 5.651,-17.809 2.034,-12.566 -2.306,-23.364 -15.483,-23.364 -13.177,0 -17.517,10.798 -15.483,23.364 2.422,14.963 3.956,10.307 5.651,17.809 0.992,6.702 0.992,6.702 -0.488,8.507 -7.018,8.552005 -36.138,7.391005 -38.254,18.310005 -0.251,1.292 -1.4260000718509,8.44399 -1.4260000718509,8.44399 l 100.0000000718509,0 c 0,0 -1.175,-7.15199 -1.426,-8.44399 z"
   id="path68"
   inkscape:connector-curvature="0" />
<circle
   d="m 33.34,45.334 c 0,5.018059 -4.067941,9.086 -9.086,9.086 -5.01806,0 -9.086001,-4.067941 -9.086001,-9.086 0,-5.01806 4.067941,-9.086001 9.086001,-9.086001 5.018059,0 9.086,4.067941 9.086,9.086001 z"
   style="fill:#000000"
   sodipodi:ry="9.0860004"
   sodipodi:rx="9.0860004"
   sodipodi:cy="45.334"
   sodipodi:cx="24.254"
   id="circle3164"
   r="9.0860004"
   cy="45.334"
   cx="24.254"
   transform="matrix(0.25002908,0,0,0.25002908,68.074536,50.557649)" /><path
   style="fill:#000000"
   inkscape:connector-curvature="0"
   id="path3166"
   d="m 75.425235,15.475195 c 0,0 -1.900831,-4.719732 -8.850357,-4.45546 0,0 -10.02857,0.784558 -10.02857,10.290091 0,0 0.132136,10.094637 10.291465,10.094637 10.159329,0 38.474977,0 38.474977,0 0,0 9.50553,0.91807 9.50553,-10.028569 0,0 0.19682,-9.439465 -9.57023,-9.572978 0,0 -2.81752,-0.195451 -4.39214,0.788687 0,0 -1.701251,-12.65064353 -15.597556,-12.58732753 0,0 -9.900563,-0.589107 -15.01395,12.06291253" /><circle
   d="m 41.683,32.817001 c 0,2.041245 -1.654756,3.696 -3.696,3.696 -2.041245,0 -3.696001,-1.654755 -3.696001,-3.696 0,-2.041244 1.654756,-3.696 3.696001,-3.696 2.041244,0 3.696,1.654756 3.696,3.696 z"
   style="fill:#000000"
   sodipodi:ry="3.6960001"
   sodipodi:rx="3.6960001"
   sodipodi:cy="32.817001"
   sodipodi:cx="37.987"
   id="circle3168"
   r="3.6960001"
   cy="32.817001"
   cx="37.987"
   transform="translate(43.287516,21.124466)" /><circle
   d="m 41.683,32.817001 c 0,2.041245 -1.654756,3.696 -3.696,3.696 -2.041245,0 -3.696001,-1.654755 -3.696001,-3.696 0,-2.041244 1.654756,-3.696 3.696001,-3.696 2.041244,0 3.696,1.654756 3.696,3.696 z"
   style="fill:#000000"
   sodipodi:ry="3.6960001"
   sodipodi:rx="3.6960001"
   sodipodi:cy="32.817001"
   sodipodi:cx="37.987"
   id="circle3168-8"
   r="3.6960001"
   cy="32.817001"
   cx="37.987"
   transform="matrix(1.4790779,0,0,1.4790779,26.445618,-7.9302975)" /></svg>