<?xml version="1.0" encoding="UTF-8" standalone="no"?>
<!-- Created with Inkscape (http://www.inkscape.org/) -->

<svg
   xmlns:dc="http://purl.org/dc/elements/1.1/"
   xmlns:cc="http://creativecommons.org/ns#"
   xmlns:rdf="http://www.w3.org/1999/02/22-rdf-syntax-ns#"
   xmlns:svg="http://www.w3.org/2000/svg"
   xmlns="http://www.w3.org/2000/svg"
   xmlns:xlink="http://www.w3.org/1999/xlink"
   xmlns:sodipodi="http://sodipodi.sourceforge.net/DTD/sodipodi-0.dtd"
   xmlns:inkscape="http://www.inkscape.org/namespaces/inkscape"
   width="350"
   height="150"
   id="svg3735"
   version="1.1"
   inkscape:version="0.47 r22583"
   sodipodi:docname="New document 5">
  <defs
     id="defs3737">
    <linearGradient
       inkscape:collect="always"
       id="linearGradient5027">
      <stop
         style="stop-color:#c0c0c0;stop-opacity:1;"
         offset="0"
         id="stop5029" />
      <stop
         style="stop-color:#696969;stop-opacity:1"
         offset="1"
         id="stop5031" />
    </linearGradient>
    <linearGradient
       inkscape:collect="always"
       id="linearGradient4997">
      <stop
         style="stop-color:#696969;stop-opacity:1;"
         offset="0"
         id="stop4999" />
      <stop
         style="stop-color:#696969;stop-opacity:0;"
         offset="1"
         id="stop5001" />
    </linearGradient>
    <linearGradient
       inkscape:collect="always"
       id="linearGradient4795">
      <stop
         style="stop-color:#000000;stop-opacity:1;"
         offset="0"
         id="stop4797" />
      <stop
         style="stop-color:#000000;stop-opacity:0;"
         offset="1"
         id="stop4799" />
    </linearGradient>
    <linearGradient
       inkscape:collect="always"
       id="linearGradient4625">
      <stop
         style="stop-color:#73a2ee;stop-opacity:1;"
         offset="0"
         id="stop4627" />
      <stop
         style="stop-color:#73a2ee;stop-opacity:0;"
         offset="1"
         id="stop4629" />
    </linearGradient>
    <inkscape:perspective
       sodipodi:type="inkscape:persp3d"
       inkscape:vp_x="0 : 526.18109 : 1"
       inkscape:vp_y="0 : 1000 : 0"
       inkscape:vp_z="744.09448 : 526.18109 : 1"
       inkscape:persp3d-origin="372.04724 : 350.78739 : 1"
       id="perspective3743" />
    <inkscape:perspective
       id="perspective3753"
       inkscape:persp3d-origin="0.5 : 0.33333333 : 1"
       inkscape:vp_z="1 : 0.5 : 1"
       inkscape:vp_y="0 : 1000 : 0"
       inkscape:vp_x="0 : 0.5 : 1"
       sodipodi:type="inkscape:persp3d" />
    <linearGradient
       inkscape:collect="always"
       xlink:href="#linearGradient4625"
       id="linearGradient4633"
       x1="-125.38783"
       y1="308.99146"
       x2="-129.86597"
       y2="443.33557"
       gradientUnits="userSpaceOnUse" />
    <linearGradient
       inkscape:collect="always"
       xlink:href="#linearGradient4795"
       id="linearGradient4801"
       x1="-122.71996"
       y1="495.26233"
       x2="-119.47747"
       y2="359.90524"
       gradientUnits="userSpaceOnUse" />
    <inkscape:perspective
       id="perspective4815"
       inkscape:persp3d-origin="0.5 : 0.33333333 : 1"
       inkscape:vp_z="1 : 0.5 : 1"
       inkscape:vp_y="0 : 1000 : 0"
       inkscape:vp_x="0 : 0.5 : 1"
       sodipodi:type="inkscape:persp3d" />
    <linearGradient
       inkscape:collect="always"
       xlink:href="#linearGradient4795"
       id="linearGradient4917"
       gradientUnits="userSpaceOnUse"
       x1="-122.71996"
       y1="495.26233"
       x2="-119.47747"
       y2="359.90524" />
    <linearGradient
       inkscape:collect="always"
       xlink:href="#linearGradient4795"
       id="linearGradient4919"
       gradientUnits="userSpaceOnUse"
       x1="-122.71996"
       y1="495.26233"
       x2="-119.47747"
       y2="359.90524" />
    <linearGradient
       inkscape:collect="always"
       xlink:href="#linearGradient4795"
       id="linearGradient4921"
       gradientUnits="userSpaceOnUse"
       x1="-122.71996"
       y1="495.26233"
       x2="-119.47747"
       y2="359.90524" />
    <linearGradient
       inkscape:collect="always"
       xlink:href="#linearGradient4795"
       id="linearGradient4923"
       gradientUnits="userSpaceOnUse"
       x1="-122.71996"
       y1="495.26233"
       x2="-119.47747"
       y2="359.90524" />
    <linearGradient
       inkscape:collect="always"
       xlink:href="#linearGradient4795"
       id="linearGradient4925"
       gradientUnits="userSpaceOnUse"
       x1="-122.71996"
       y1="495.26233"
       x2="-119.47747"
       y2="359.90524" />
    <linearGradient
       inkscape:collect="always"
       xlink:href="#linearGradient4795"
       id="linearGradient4927"
       gradientUnits="userSpaceOnUse"
       x1="-122.71996"
       y1="495.26233"
       x2="-119.47747"
       y2="359.90524" />
    <linearGradient
       inkscape:collect="always"
       xlink:href="#linearGradient4795"
       id="linearGradient4929"
       gradientUnits="userSpaceOnUse"
       x1="-122.71996"
       y1="495.26233"
       x2="-119.47747"
       y2="359.90524" />
    <linearGradient
       inkscape:collect="always"
       xlink:href="#linearGradient4795"
       id="linearGradient4931"
       gradientUnits="userSpaceOnUse"
       x1="-122.71996"
       y1="495.26233"
       x2="-119.47747"
       y2="359.90524" />
    <linearGradient
       inkscape:collect="always"
       xlink:href="#linearGradient4795"
       id="linearGradient4933"
       gradientUnits="userSpaceOnUse"
       x1="-122.71996"
       y1="495.26233"
       x2="-119.47747"
       y2="359.90524" />
    <linearGradient
       inkscape:collect="always"
       xlink:href="#linearGradient4795"
       id="linearGradient4935"
       gradientUnits="userSpaceOnUse"
       x1="-122.71996"
       y1="495.26233"
       x2="-119.47747"
       y2="359.90524" />
    <linearGradient
       inkscape:collect="always"
       xlink:href="#linearGradient4795"
       id="linearGradient4937"
       gradientUnits="userSpaceOnUse"
       x1="-122.71996"
       y1="495.26233"
       x2="-119.47747"
       y2="359.90524" />
    <linearGradient
       inkscape:collect="always"
       xlink:href="#linearGradient4795"
       id="linearGradient4939"
       gradientUnits="userSpaceOnUse"
       x1="-122.71996"
       y1="495.26233"
       x2="-119.47747"
       y2="359.90524" />
    <linearGradient
       inkscape:collect="always"
       xlink:href="#linearGradient4795"
       id="linearGradient4941"
       gradientUnits="userSpaceOnUse"
       x1="-122.71996"
       y1="495.26233"
       x2="-119.47747"
       y2="359.90524" />
    <linearGradient
       inkscape:collect="always"
       xlink:href="#linearGradient4795"
       id="linearGradient4943"
       gradientUnits="userSpaceOnUse"
       x1="-122.71996"
       y1="495.26233"
       x2="-119.47747"
       y2="359.90524" />
    <linearGradient
       inkscape:collect="always"
       xlink:href="#linearGradient4795"
       id="linearGradient4945"
       gradientUnits="userSpaceOnUse"
       x1="-122.71996"
       y1="495.26233"
       x2="-119.47747"
       y2="359.90524" />
    <linearGradient
       inkscape:collect="always"
       xlink:href="#linearGradient4795"
       id="linearGradient4947"
       gradientUnits="userSpaceOnUse"
       x1="-122.71996"
       y1="495.26233"
       x2="-119.47747"
       y2="359.90524" />
    <linearGradient
       inkscape:collect="always"
       xlink:href="#linearGradient4795"
       id="linearGradient4949"
       gradientUnits="userSpaceOnUse"
       x1="-122.71996"
       y1="495.26233"
       x2="-119.47747"
       y2="359.90524" />
    <linearGradient
       inkscape:collect="always"
       xlink:href="#linearGradient4795"
       id="linearGradient4951"
       gradientUnits="userSpaceOnUse"
       x1="-122.71996"
       y1="495.26233"
       x2="-119.47747"
       y2="359.90524" />
    <linearGradient
       inkscape:collect="always"
       xlink:href="#linearGradient4795"
       id="linearGradient4953"
       gradientUnits="userSpaceOnUse"
       x1="-122.71996"
       y1="495.26233"
       x2="-119.47747"
       y2="359.90524" />
    <linearGradient
       inkscape:collect="always"
       xlink:href="#linearGradient4795"
       id="linearGradient4955"
       gradientUnits="userSpaceOnUse"
       x1="-122.71996"
       y1="495.26233"
       x2="-119.47747"
       y2="359.90524" />
    <linearGradient
       inkscape:collect="always"
       xlink:href="#linearGradient4795"
       id="linearGradient4957"
       gradientUnits="userSpaceOnUse"
       x1="-122.71996"
       y1="495.26233"
       x2="-119.47747"
       y2="359.90524" />
    <linearGradient
       inkscape:collect="always"
       xlink:href="#linearGradient4795"
       id="linearGradient4959"
       gradientUnits="userSpaceOnUse"
       x1="-122.71996"
       y1="495.26233"
       x2="-119.47747"
       y2="359.90524" />
    <linearGradient
       inkscape:collect="always"
       xlink:href="#linearGradient4795"
       id="linearGradient4961"
       gradientUnits="userSpaceOnUse"
       x1="-122.71996"
       y1="495.26233"
       x2="-119.47747"
       y2="359.90524" />
    <linearGradient
       inkscape:collect="always"
       xlink:href="#linearGradient4795"
       id="linearGradient4963"
       gradientUnits="userSpaceOnUse"
       x1="-122.71996"
       y1="495.26233"
       x2="-119.47747"
       y2="359.90524" />
    <linearGradient
       inkscape:collect="always"
       xlink:href="#linearGradient4795"
       id="linearGradient4965"
       gradientUnits="userSpaceOnUse"
       x1="-122.71996"
       y1="495.26233"
       x2="-119.47747"
       y2="359.90524" />
    <linearGradient
       inkscape:collect="always"
       xlink:href="#linearGradient4795"
       id="linearGradient4967"
       gradientUnits="userSpaceOnUse"
       x1="-122.71996"
       y1="495.26233"
       x2="-119.47747"
       y2="359.90524" />
    <linearGradient
       inkscape:collect="always"
       xlink:href="#linearGradient4795"
       id="linearGradient4969"
       gradientUnits="userSpaceOnUse"
       x1="-122.71996"
       y1="495.26233"
       x2="-119.47747"
       y2="359.90524" />
    <linearGradient
       inkscape:collect="always"
       xlink:href="#linearGradient4795"
       id="linearGradient4971"
       gradientUnits="userSpaceOnUse"
       x1="-122.71996"
       y1="495.26233"
       x2="-119.47747"
       y2="359.90524" />
    <linearGradient
       inkscape:collect="always"
       xlink:href="#linearGradient4795"
       id="linearGradient4973"
       gradientUnits="userSpaceOnUse"
       x1="-122.71996"
       y1="495.26233"
       x2="-119.47747"
       y2="359.90524" />
    <linearGradient
       inkscape:collect="always"
       xlink:href="#linearGradient4795"
       id="linearGradient4975"
       gradientUnits="userSpaceOnUse"
       x1="-122.71996"
       y1="495.26233"
       x2="-119.47747"
       y2="359.90524" />
    <linearGradient
       inkscape:collect="always"
       xlink:href="#linearGradient4795"
       id="linearGradient4977"
       gradientUnits="userSpaceOnUse"
       x1="-122.71996"
       y1="495.26233"
       x2="-119.47747"
       y2="359.90524" />
    <linearGradient
       inkscape:collect="always"
       xlink:href="#linearGradient4795"
       id="linearGradient4979"
       gradientUnits="userSpaceOnUse"
       x1="-122.71996"
       y1="495.26233"
       x2="-119.47747"
       y2="359.90524" />
    <linearGradient
       inkscape:collect="always"
       xlink:href="#linearGradient4795"
       id="linearGradient4981"
       gradientUnits="userSpaceOnUse"
       x1="-122.71996"
       y1="495.26233"
       x2="-119.47747"
       y2="359.90524" />
    <linearGradient
       inkscape:collect="always"
       xlink:href="#linearGradient4795"
       id="linearGradient4983"
       gradientUnits="userSpaceOnUse"
       x1="-122.71996"
       y1="495.26233"
       x2="-119.47747"
       y2="359.90524" />
    <linearGradient
       inkscape:collect="always"
       xlink:href="#linearGradient4795"
       id="linearGradient4985"
       gradientUnits="userSpaceOnUse"
       x1="-122.71996"
       y1="495.26233"
       x2="-119.47747"
       y2="359.90524" />
    <linearGradient
       inkscape:collect="always"
       xlink:href="#linearGradient4795"
       id="linearGradient4987"
       gradientUnits="userSpaceOnUse"
       x1="-122.71996"
       y1="495.26233"
       x2="-119.47747"
       y2="359.90524" />
    <linearGradient
       inkscape:collect="always"
       xlink:href="#linearGradient4795"
       id="linearGradient4989"
       gradientUnits="userSpaceOnUse"
       x1="-122.71996"
       y1="495.26233"
       x2="-119.47747"
       y2="359.90524" />
    <linearGradient
       inkscape:collect="always"
       xlink:href="#linearGradient4795"
       id="linearGradient4991"
       gradientUnits="userSpaceOnUse"
       x1="-122.71996"
       y1="495.26233"
       x2="-119.47747"
       y2="359.90524" />
    <linearGradient
       inkscape:collect="always"
       xlink:href="#linearGradient4795"
       id="linearGradient4993"
       gradientUnits="userSpaceOnUse"
       x1="-122.71996"
       y1="495.26233"
       x2="-119.47747"
       y2="359.90524" />
    <linearGradient
       inkscape:collect="always"
       xlink:href="#linearGradient4997"
       id="linearGradient5003"
       x1="-27.332571"
       y1="330.94293"
       x2="-34.348217"
       y2="550.70471"
       gradientUnits="userSpaceOnUse" />
    <linearGradient
       inkscape:collect="always"
       xlink:href="#linearGradient5027"
       id="linearGradient5033"
       x1="-341.28268"
       y1="-623.95862"
       x2="-343.03659"
       y2="-495.23019"
       gradientUnits="userSpaceOnUse" />
  </defs>
  <sodipodi:namedview
     id="base"
     pagecolor="#ffffff"
     bordercolor="#666666"
     borderopacity="1.0"
     inkscape:pageopacity="0.0"
     inkscape:pageshadow="2"
     inkscape:zoom="0.631608"
     inkscape:cx="379.51331"
     inkscape:cy="137.89355"
     inkscape:document-units="px"
     inkscape:current-layer="layer1"
     showgrid="false"
     inkscape:window-width="1280"
     inkscape:window-height="712"
     inkscape:window-x="-4"
     inkscape:window-y="-4"
     inkscape:window-maximized="1" />
  <metadata
     id="metadata3740">
    <rdf:RDF>
      <cc:Work
         rdf:about="">
        <dc:format>image/svg+xml</dc:format>
        <dc:type
           rdf:resource="http://purl.org/dc/dcmitype/StillImage" />
        <dc:title></dc:title>
      </cc:Work>
    </rdf:RDF>
  </metadata>
  <g
     inkscape:label="Layer 1"
     inkscape:groupmode="layer"
     id="layer1"
     transform="translate(0,-902.36218)">
    <g
       id="g4831"
       transform="matrix(0.43863548,0,0,0.42008825,170.30857,779.75256)"
       style="stroke:#000000;stroke-width:3.79999995;stroke-miterlimit:4;stroke-opacity:1;stroke-dasharray:none">
      <rect
         transform="scale(1,-1)"
         style="fill:url(#linearGradient5033);fill-opacity:1;fill-rule:evenodd;stroke:#000000;stroke-width:3.79999995;stroke-linecap:round;stroke-linejoin:round;stroke-miterlimit:4;stroke-opacity:1;stroke-dasharray:none;stroke-dashoffset:0"
         id="rect4491"
         width="777.83234"
         height="149.82098"
         x="-380.05048"
         y="-646.99268"
         ry="0.25920716" />
      <rect
         ry="0.34348783"
         y="299.18555"
         x="-379.72714"
         height="198.53496"
         width="776.14569"
         id="rect3837"
         style="fill:url(#linearGradient5003);fill-opacity:1;fill-rule:evenodd;stroke:#000000;stroke-width:3.79999995;stroke-linecap:round;stroke-linejoin:round;stroke-miterlimit:4;stroke-opacity:1;stroke-dasharray:none;stroke-dashoffset:0" />
      <g
         id="g4641"
         style="stroke:#000000;stroke-width:3.79999995;stroke-miterlimit:4;stroke-opacity:1;stroke-dasharray:none">
        <path
           style="fill:#996600;stroke:#000000;stroke-width:3.79999995;stroke-linecap:butt;stroke-linejoin:miter;stroke-miterlimit:4;stroke-opacity:1;stroke-dasharray:none"
           d="m -346.30904,455.27763 c 0,0 -5.22449,-17.16618 -1.49271,-16.41982 3.73178,0.74635 18.65889,1.49271 18.65889,1.49271 l 0.74636,61.20117 -16.41983,-1.49271 -1.49271,-44.78135 z"
           id="path3761" />
        <path
           style="fill:#cc9900;stroke:#000000;stroke-width:3.79999995;stroke-linecap:butt;stroke-linejoin:miter;stroke-miterlimit:4;stroke-opacity:1;stroke-dasharray:none"
           d="m -347.05539,500.80533 c 0,-5.22449 -1.49272,-44.03498 -1.49272,-44.03498 l 14.18076,1.49271 2.23907,42.54227 -14.92711,0 z"
           id="path3759" />
        <path
           style="fill:#a27d62;fill-opacity:1;stroke:#000000;stroke-width:3.79999995;stroke-linecap:butt;stroke-linejoin:miter;stroke-miterlimit:4;stroke-opacity:1;stroke-dasharray:none"
           d="m -337.35277,438.85781 -0.74636,-8.95627 4.47814,-1.49271 0,-21.64432 12.68805,0.74636 -1.49272,26.86881 6.71721,0 0,62.69387 -12.68805,2.98543 -0.74636,-59.70846 -8.20991,-1.49271 z"
           id="path3765" />
        <path
           style="fill:#d4995f;fill-opacity:1;stroke:#000000;stroke-width:3.79999995;stroke-linecap:butt;stroke-linejoin:miter;stroke-miterlimit:4;stroke-opacity:1;stroke-dasharray:none"
           d="m -314.21574,499.31262 c 0,-5.97085 0,-31.34694 2.98542,-31.34694 2.98542,0 7.46356,1.49271 7.46356,1.49271 l 0,10.44898 5.22449,-1.49271 -3.73178,-11.19533 8.95627,0 0,6.7172 8.95626,0 -1.49271,-16.41983 3.73178,-0.74635 -2.23907,-13.43441 2.98543,0 3.73177,-11.19533 0.74636,8.20991 2.23907,1.49271 -0.74636,2.98542 2.98542,-0.74635 0,12.68805 2.98543,-1.49272 -1.49271,33.58601 -43.28863,10.44898 z"
           id="path3767" />
        <path
           style="fill:#d4a674;fill-opacity:1;stroke:#000000;stroke-width:3.79999995;stroke-linecap:butt;stroke-linejoin:miter;stroke-miterlimit:4;stroke-opacity:1;stroke-dasharray:none"
           d="m -269.4344,492.59542 c 0.74635,-5.97085 0.74635,-22.39067 0.74635,-22.39067 l 25.3761,1.49271 0.74635,21.64431 -26.8688,-0.74635 z"
           id="path3769" />
        <path
           style="fill:#3f414e;fill-opacity:1;stroke:#000000;stroke-width:3.79999995;stroke-linecap:butt;stroke-linejoin:miter;stroke-miterlimit:4;stroke-opacity:1;stroke-dasharray:none"
           d="m -300.78134,466.47297 c 0,-6.7172 -1.49271,-50.00583 -1.49271,-50.00583 l 5.97084,0 -1.49271,-28.36152 4.47814,0 -2.98543,-27.61516 16.41983,0.74636 c 0,0 -3.73178,23.13702 0,23.13702 3.73178,0 5.97084,0 5.97084,0 l -1.49271,32.0933 5.22449,2.98542 1.49271,52.2449 1.49271,28.36152 -35.07871,0.74635 1.49271,-34.33236 z"
           id="path3771" />
        <path
           style="fill:#cd9e74;fill-opacity:1;stroke:#000000;stroke-width:3.79999995;stroke-linecap:butt;stroke-linejoin:miter;stroke-miterlimit:4;stroke-opacity:1;stroke-dasharray:none"
           d="m -241.07289,487.37093 -0.74635,-17.91254 19.40525,-2.98542 -2.23907,13.4344 5.97084,0.74636 0,-7.46356 11.19534,-2.23907 -0.74636,5.22449 18.6589,1.49271 3.73177,15.67347 -54.48396,4.47814 -0.74636,-10.44898 z"
           id="path3773" />
        <path
           style="fill:#2a2a32;fill-opacity:1;stroke:#000000;stroke-width:3.79999995;stroke-linecap:butt;stroke-linejoin:miter;stroke-miterlimit:4;stroke-opacity:1;stroke-dasharray:none"
           d="m -262.7172,467.21933 0.74635,-8.20992 40.30321,2.23907 0,-23.88338 6.7172,0 1.49271,-5.22449 11.94169,-0.74636 1.49272,5.22449 4.47813,0 0.74636,61.94752 -70.15744,2.23907 2.23907,-33.586 z"
           id="path3775" />
        <path
           style="fill:#9a7f64;fill-opacity:1;stroke:#000000;stroke-width:3.79999995;stroke-linecap:butt;stroke-linejoin:miter;stroke-miterlimit:4;stroke-opacity:1;stroke-dasharray:none"
           d="m -257.49271,456.02399 0.74635,-22.39067 20.15161,1.49271 0,23.88338 -20.89796,-2.98542 z"
           id="path3777" />
        <path
           style="fill:#846853;fill-opacity:1;stroke:#000000;stroke-width:3.79999995;stroke-linecap:butt;stroke-linejoin:miter;stroke-miterlimit:4;stroke-opacity:1;stroke-dasharray:none"
           d="m -232.86297,458.26306 c 0,-2.98543 -1.49272,-41.79592 -1.49272,-41.79592 l 5.97085,0 c 0,0 -3.73178,-4.47814 -0.74636,-4.47814 2.98543,0 14.18076,-2.23906 14.18076,-2.23906 l 0.74636,8.20991 2.23907,1.49271 -1.49272,45.5277 -19.40524,-6.7172 z"
           id="path3779" />
        <path
           style="fill:#812321;fill-opacity:1;stroke:#000000;stroke-width:3.79999995;stroke-linecap:butt;stroke-linejoin:miter;stroke-miterlimit:4;stroke-opacity:1;stroke-dasharray:none"
           d="m -182.11079,497.81991 -2.23906,-81.35277 35.82507,0.74635 0,80.60642 -33.58601,0 z"
           id="path3781" />
        <path
           style="fill:#9e6c43;fill-opacity:1;stroke:#000000;stroke-width:3.79999995;stroke-linecap:butt;stroke-linejoin:miter;stroke-miterlimit:4;stroke-opacity:1;stroke-dasharray:none"
           d="m -167.18367,498.56626 0,-38.06414 11.94169,1.49272 10.44898,-3.73178 15.67347,1.49271 0.74635,35.82507 -38.81049,2.98542 z"
           id="path3783" />
        <path
           style="fill:#54545a;fill-opacity:1;stroke:#000000;stroke-width:3.79999995;stroke-linecap:butt;stroke-linejoin:miter;stroke-miterlimit:4;stroke-opacity:1;stroke-dasharray:none"
           d="m -147.77843,457.5167 0.74636,-21.64431 16.41983,2.23906 0,21.64432 -17.16619,-2.23907 z"
           id="path3787" />
        <path
           style="fill:#5d443d;fill-opacity:1;stroke:#000000;stroke-width:3.79999995;stroke-linecap:butt;stroke-linejoin:miter;stroke-miterlimit:4;stroke-opacity:1;stroke-dasharray:none"
           d="m -121.65598,438.85781 0,-26.86881 27.615164,-0.74635 1.492711,85.08455 -26.868805,2.23906 -2.23907,-59.70845 z"
           id="path3789" />
        <path
           style="fill:#dbb27f;fill-opacity:1;stroke:#000000;stroke-width:3.79999995;stroke-linecap:butt;stroke-linejoin:miter;stroke-miterlimit:4;stroke-opacity:1;stroke-dasharray:none"
           d="m -107.47522,493.34177 -0.74635,-24.62973 25.376089,0 0,29.10787 -24.629739,-1.49271 26.868806,-3.73178 -0.746356,-67.17201 41.049563,5.22449 -5.970846,64.18659 -35.078717,2.23906 0,0"
           id="path3791" />
        <path
           style="fill:#52596d;fill-opacity:1;stroke:#000000;stroke-width:3.79999995;stroke-linecap:butt;stroke-linejoin:miter;stroke-miterlimit:4;stroke-opacity:1;stroke-dasharray:none"
           d="m -29.107872,493.34177 -2.985422,-86.57726 -1.492712,-14.92711 16.419825,0 -0.746355,9.70262 8.2099121,1.49272 -1.4927111,93.29446 -17.912537,0 -3.731778,-2.23907 3.731778,-0.74636 z"
           id="path3793" />
        <path
           style="fill:#76716d;fill-opacity:1;stroke:#000000;stroke-width:3.79999995;stroke-linecap:butt;stroke-linejoin:miter;stroke-miterlimit:4;stroke-opacity:1;stroke-dasharray:none"
           d="m 2.9854227,497.07355 -4.4781341,-64.93294 20.1516034,2.23907 -3.731778,61.94752 -11.9416913,0.74635 z"
           id="path3795" />
        <path
           style="fill:#eac8a2;fill-opacity:1;stroke:#000000;stroke-width:3.79999995;stroke-linecap:butt;stroke-linejoin:miter;stroke-miterlimit:4;stroke-opacity:1;stroke-dasharray:none"
           d="m 22.390671,492.59542 -1.492712,-47.02041 5.22449,0.74636 0,-8.20992 6.717201,0.74636 0,8.20991 5.970846,0 -2.239067,46.27405 -14.180758,-0.74635 z"
           id="path3797" />
        <path
           style="fill:#6d5436;fill-opacity:1;stroke:#000000;stroke-width:3.79999995;stroke-linecap:butt;stroke-linejoin:miter;stroke-miterlimit:4;stroke-opacity:1;stroke-dasharray:none"
           d="m 35.825073,491.10271 0.746356,-55.97668 21.644314,3.73178 -2.985422,58.21574 -19.405248,-5.97084 z"
           id="path3799" />
        <path
           style="fill:#a98655;fill-opacity:1;stroke:#000000;stroke-width:3.79999995;stroke-linecap:butt;stroke-linejoin:miter;stroke-miterlimit:4;stroke-opacity:1;stroke-dasharray:none"
           d="m 55.976677,494.08813 -1.492712,-65.6793 15.67347,0.74635 0.746355,67.91837 -5.970845,0.74636 -8.956268,-3.73178 z"
           id="path3801"
           sodipodi:nodetypes="cccccc" />
        <path
           style="fill:#9c8061;fill-opacity:1;stroke:#000000;stroke-width:3.79999995;stroke-linecap:butt;stroke-linejoin:miter;stroke-miterlimit:4;stroke-opacity:1;stroke-dasharray:none"
           d="m 79.679051,492.58832 -2.797311,-43.01546 9.324371,-19.66421 13.986559,22.12223 2.79731,39.94293 -23.310929,0.61451 z"
           id="path3803" />
        <path
           style="fill:#996600;stroke:#000000;stroke-width:3.79999995;stroke-linecap:butt;stroke-linejoin:miter;stroke-miterlimit:4;stroke-opacity:1;stroke-dasharray:none"
           d="m 111.95335,490.35635 -5.22449,-55.23032 18.6589,2.23907 0,54.48396 -13.43441,-1.49271 z"
           id="path3805" />
        <path
           style="fill:#8a6746;fill-opacity:1;stroke:#000000;stroke-width:3.79999995;stroke-linecap:butt;stroke-linejoin:miter;stroke-miterlimit:4;stroke-opacity:1;stroke-dasharray:none"
           d="m 126.88047,488.86364 -1.49271,-51.49854 28.36151,0.74635 0,54.48397 -26.8688,-3.73178 z"
           id="path3807" />
        <path
           style="fill:#ccc1c8;fill-opacity:1;stroke:#000000;stroke-width:3.79999995;stroke-linecap:butt;stroke-linejoin:miter;stroke-miterlimit:4;stroke-opacity:1;stroke-dasharray:none"
           d="m 138.82216,438.85781 -1.49271,-53.73761 5.22449,0 0,-11.19534 8.95626,0 5.97085,118.67056 -14.18076,1.49271 -4.47813,-55.23032 z"
           id="path3809" />
        <path
           style="fill:#222738;fill-opacity:1;stroke:#000000;stroke-width:3.79999995;stroke-linecap:butt;stroke-linejoin:miter;stroke-miterlimit:4;stroke-opacity:1;stroke-dasharray:none"
           d="m 157.48105,491.84906 -2.23907,-82.09912 8.20992,-14.92712 0,-18.65889 2.23906,25.37609 8.95627,11.19534 -2.98542,79.86006 -14.18076,-0.74636 z"
           id="path3811" />
        <path
           style="fill:#d0b096;fill-opacity:1;stroke:#000000;stroke-width:3.79999995;stroke-linecap:butt;stroke-linejoin:miter;stroke-miterlimit:4;stroke-opacity:1;stroke-dasharray:none"
           d="m 179.87172,490.35635 -2.23907,-126.13411 28.36152,-2.98542 2.23907,128.37318 -28.36152,0.74635 z"
           id="path3813" />
        <path
           style="fill:#313743;fill-opacity:1;stroke:#000000;stroke-width:3.79999995;stroke-linecap:butt;stroke-linejoin:miter;stroke-miterlimit:4;stroke-opacity:1;stroke-dasharray:none"
           d="m 214.20408,491.84906 -2.98542,-88.06997 59.70845,2.98542 -3.73177,85.08455 -52.99126,0 z"
           id="path3815" />
        <path
           style="fill:#8f6f4e;fill-opacity:1;stroke:#000000;stroke-width:3.79999995;stroke-linecap:butt;stroke-linejoin:miter;stroke-miterlimit:4;stroke-opacity:1;stroke-dasharray:none"
           d="m 276.89796,488.11728 0,-41.79591 16.41982,2.23906 0.74636,-11.19533 1.49271,-5.97085 5.97085,6.7172 1.49271,55.23032 -26.12245,-5.22449 z"
           id="path3817" />
        <path
           style="fill:#4b382a;fill-opacity:1;stroke:#000000;stroke-width:3.79999995;stroke-linecap:butt;stroke-linejoin:miter;stroke-miterlimit:4;stroke-opacity:1;stroke-dasharray:none"
           d="m 310.48397,492.59542 -5.22449,-44.78134 28.36151,-3.73178 5.97085,11.94169 10.44898,0 6.7172,38.8105 -46.27405,-2.23907 z"
           id="path3819" />
        <path
           style="fill:#212830;fill-opacity:1;stroke:#000000;stroke-width:3.79999995;stroke-linecap:butt;stroke-linejoin:miter;stroke-miterlimit:4;stroke-opacity:1;stroke-dasharray:none"
           d="m 346.30904,453.03857 2.98542,-35.07872 14.18076,0 6.7172,77.62099 -16.41983,0 -7.46355,-42.54227 z"
           id="path3821" />
        <path
           style="fill:#1c1c20;fill-opacity:1;stroke:#000000;stroke-width:3.79999995;stroke-linecap:butt;stroke-linejoin:miter;stroke-miterlimit:4;stroke-opacity:1;stroke-dasharray:none"
           d="m 367.95335,491.84906 c 1.49271,-5.22449 3.73178,-68.66472 3.73178,-68.66472 l 11.94169,-0.74636 2.23907,72.39651 -17.91254,-2.98543 z"
           id="path3823" />
        <path
           style="fill:#b39c6a;fill-opacity:1;stroke:#000000;stroke-width:3.79999995;stroke-linecap:butt;stroke-linejoin:miter;stroke-miterlimit:4;stroke-opacity:1;stroke-dasharray:none"
           d="m 378.78004,493.24477 c 0,-3.48642 -0.87985,-57.87452 -0.87985,-57.87452 l 18.9168,0.69729 -1.7597,59.26908 -16.27725,-2.09185 z"
           id="path3825" />
        <path
           style="fill:#ff9933;stroke:#000000;stroke-width:3.79999995;stroke-linecap:butt;stroke-linejoin:miter;stroke-miterlimit:4;stroke-opacity:1;stroke-dasharray:none"
           d="m -79.113703,492.59542 c 0,-8.20991 -0.746355,-26.86881 -0.746355,-26.86881 l 41.795918,-1.49271 -1.492711,29.10787 -39.556852,-0.74635 z"
           id="path3827" />
        <path
           style="fill:#3d2a22;fill-opacity:1;stroke:#000000;stroke-width:3.79999995;stroke-linecap:butt;stroke-linejoin:miter;stroke-miterlimit:4;stroke-opacity:1;stroke-dasharray:none"
           d="m -26.122449,494.08813 2.239067,-17.91254 9.702624,-6.7172 6.7172011,8.95627 -2.9854231,18.65889 -15.673469,-2.98542 z"
           id="path3831" />
        <path
           style="fill:#a06230;fill-opacity:1;stroke:#000000;stroke-width:3.79999995;stroke-linecap:butt;stroke-linejoin:miter;stroke-miterlimit:4;stroke-opacity:1;stroke-dasharray:none"
           d="m 18.658892,496.3272 c 0,0 -5.970845,-35.07872 -0.746356,-32.0933 5.22449,2.98543 11.941691,3.73178 11.941691,3.73178 l -0.746355,28.36152 -10.44898,0 z"
           id="path3833" />
        <path
           style="fill:#ffcc66;stroke:#000000;stroke-width:3.79999995;stroke-linecap:butt;stroke-linejoin:miter;stroke-miterlimit:4;stroke-opacity:1;stroke-dasharray:none"
           d="m 38.06414,498.56626 c 0,-3.73177 -6.717201,-31.34693 0.746356,-29.85422 7.463557,1.49271 17.912536,-0.74636 17.912536,-0.74636 l -4.478134,29.10787 -14.180758,1.49271 z"
           id="path3835" />
        <path
           style="fill:#ffff99;stroke:#000000;stroke-width:3.79999995;stroke-linecap:butt;stroke-linejoin:miter;stroke-miterlimit:4;stroke-opacity:1;stroke-dasharray:none"
           d="m -37.317784,494.83449 c 0,-6.71721 0.746355,-24.62974 0.746355,-24.62974 l 6.717202,0 1.492711,26.12245 -8.956268,-1.49271 z"
           id="path3829" />
        <path
           style="fill:#ffcc66;stroke:#000000;stroke-width:3.79999995;stroke-linecap:butt;stroke-linejoin:miter;stroke-miterlimit:4;stroke-opacity:1;stroke-dasharray:none"
           d="m -129.86589,458.26306 c 0,0 9.70262,-22.39067 9.70262,-19.40525 0,2.98542 6.71721,12.68805 6.71721,12.68805 l 0,5.97084 3.73177,0.74636 0.74636,34.33236 c 0,0 -18.65889,5.22449 -19.40525,2.23907 -0.74635,-2.98543 -1.49271,-36.57143 -1.49271,-36.57143 z"
           id="path3785" />
      </g>
      <g
         style="opacity:0.30526315;fill:url(#linearGradient4993);fill-opacity:1;stroke:#000000;stroke-width:4.55445814;stroke-miterlimit:4;stroke-opacity:1;stroke-dasharray:none"
         transform="matrix(0.97657218,0,0,-0.71283569,-8.3992039,859.17798)"
         id="g4681">
        <path
           id="path4683"
           d="m -346.30904,455.27763 c 0,0 -5.22449,-17.16618 -1.49271,-16.41982 3.73178,0.74635 18.65889,1.49271 18.65889,1.49271 l 0.74636,61.20117 -16.41983,-1.49271 -1.49271,-44.78135 z"
           style="fill:url(#linearGradient4917);fill-opacity:1;stroke:#000000;stroke-width:4.55445814;stroke-linecap:butt;stroke-linejoin:miter;stroke-miterlimit:4;stroke-opacity:1;stroke-dasharray:none" />
        <path
           id="path4685"
           d="m -347.05539,500.80533 c 0,-5.22449 -1.49272,-44.03498 -1.49272,-44.03498 l 14.18076,1.49271 2.23907,42.54227 -14.92711,0 z"
           style="fill:url(#linearGradient4919);fill-opacity:1;stroke:#000000;stroke-width:4.55445814;stroke-linecap:butt;stroke-linejoin:miter;stroke-miterlimit:4;stroke-opacity:1;stroke-dasharray:none" />
        <path
           id="path4687"
           d="m -337.35277,438.85781 -0.74636,-8.95627 4.47814,-1.49271 0,-21.64432 12.68805,0.74636 -1.49272,26.86881 6.71721,0 0,62.69387 -12.68805,2.98543 -0.74636,-59.70846 -8.20991,-1.49271 z"
           style="fill:url(#linearGradient4921);fill-opacity:1;stroke:#000000;stroke-width:4.55445814;stroke-linecap:butt;stroke-linejoin:miter;stroke-miterlimit:4;stroke-opacity:1;stroke-dasharray:none" />
        <path
           id="path4689"
           d="m -314.21574,499.31262 c 0,-5.97085 0,-31.34694 2.98542,-31.34694 2.98542,0 7.46356,1.49271 7.46356,1.49271 l 0,10.44898 5.22449,-1.49271 -3.73178,-11.19533 8.95627,0 0,6.7172 8.95626,0 -1.49271,-16.41983 3.73178,-0.74635 -2.23907,-13.43441 2.98543,0 3.73177,-11.19533 0.74636,8.20991 2.23907,1.49271 -0.74636,2.98542 2.98542,-0.74635 0,12.68805 2.98543,-1.49272 -1.49271,33.58601 -43.28863,10.44898 z"
           style="fill:url(#linearGradient4923);fill-opacity:1;stroke:#000000;stroke-width:4.55445814;stroke-linecap:butt;stroke-linejoin:miter;stroke-miterlimit:4;stroke-opacity:1;stroke-dasharray:none" />
        <path
           id="path4691"
           d="m -269.4344,492.59542 c 0.74635,-5.97085 0.74635,-22.39067 0.74635,-22.39067 l 25.3761,1.49271 0.74635,21.64431 -26.8688,-0.74635 z"
           style="fill:url(#linearGradient4925);fill-opacity:1;stroke:#000000;stroke-width:4.55445814;stroke-linecap:butt;stroke-linejoin:miter;stroke-miterlimit:4;stroke-opacity:1;stroke-dasharray:none" />
        <path
           id="path4693"
           d="m -300.78134,466.47297 c 0,-6.7172 -1.49271,-50.00583 -1.49271,-50.00583 l 5.97084,0 -1.49271,-28.36152 4.47814,0 -2.98543,-27.61516 16.41983,0.74636 c 0,0 -3.73178,23.13702 0,23.13702 3.73178,0 5.97084,0 5.97084,0 l -1.49271,32.0933 5.22449,2.98542 1.49271,52.2449 1.49271,28.36152 -35.07871,0.74635 1.49271,-34.33236 z"
           style="fill:url(#linearGradient4927);fill-opacity:1;stroke:#000000;stroke-width:4.55445814;stroke-linecap:butt;stroke-linejoin:miter;stroke-miterlimit:4;stroke-opacity:1;stroke-dasharray:none" />
        <path
           id="path4695"
           d="m -241.07289,487.37093 -0.74635,-17.91254 19.40525,-2.98542 -2.23907,13.4344 5.97084,0.74636 0,-7.46356 11.19534,-2.23907 -0.74636,5.22449 18.6589,1.49271 3.73177,15.67347 -54.48396,4.47814 -0.74636,-10.44898 z"
           style="fill:url(#linearGradient4929);fill-opacity:1;stroke:#000000;stroke-width:4.55445814;stroke-linecap:butt;stroke-linejoin:miter;stroke-miterlimit:4;stroke-opacity:1;stroke-dasharray:none" />
        <path
           id="path4697"
           d="m -262.7172,467.21933 0.74635,-8.20992 40.30321,2.23907 0,-23.88338 6.7172,0 1.49271,-5.22449 11.94169,-0.74636 1.49272,5.22449 4.47813,0 0.74636,61.94752 -70.15744,2.23907 2.23907,-33.586 z"
           style="fill:url(#linearGradient4931);fill-opacity:1;stroke:#000000;stroke-width:4.55445814;stroke-linecap:butt;stroke-linejoin:miter;stroke-miterlimit:4;stroke-opacity:1;stroke-dasharray:none" />
        <path
           id="path4699"
           d="m -257.49271,456.02399 0.74635,-22.39067 20.15161,1.49271 0,23.88338 -20.89796,-2.98542 z"
           style="fill:url(#linearGradient4933);fill-opacity:1;stroke:#000000;stroke-width:4.55445814;stroke-linecap:butt;stroke-linejoin:miter;stroke-miterlimit:4;stroke-opacity:1;stroke-dasharray:none" />
        <path
           id="path4701"
           d="m -232.86297,458.26306 c 0,-2.98543 -1.49272,-41.79592 -1.49272,-41.79592 l 5.97085,0 c 0,0 -3.73178,-4.47814 -0.74636,-4.47814 2.98543,0 14.18076,-2.23906 14.18076,-2.23906 l 0.74636,8.20991 2.23907,1.49271 -1.49272,45.5277 -19.40524,-6.7172 z"
           style="fill:url(#linearGradient4935);fill-opacity:1;stroke:#000000;stroke-width:4.55445814;stroke-linecap:butt;stroke-linejoin:miter;stroke-miterlimit:4;stroke-opacity:1;stroke-dasharray:none" />
        <path
           id="path4703"
           d="m -182.11079,497.81991 -2.23906,-81.35277 35.82507,0.74635 0,80.60642 -33.58601,0 z"
           style="fill:url(#linearGradient4937);fill-opacity:1;stroke:#000000;stroke-width:4.55445814;stroke-linecap:butt;stroke-linejoin:miter;stroke-miterlimit:4;stroke-opacity:1;stroke-dasharray:none" />
        <path
           id="path4705"
           d="m -167.18367,498.56626 0,-38.06414 11.94169,1.49272 10.44898,-3.73178 15.67347,1.49271 0.74635,35.82507 -38.81049,2.98542 z"
           style="fill:url(#linearGradient4939);fill-opacity:1;stroke:#000000;stroke-width:4.55445814;stroke-linecap:butt;stroke-linejoin:miter;stroke-miterlimit:4;stroke-opacity:1;stroke-dasharray:none" />
        <path
           id="path4707"
           d="m -147.77843,457.5167 0.74636,-21.64431 16.41983,2.23906 0,21.64432 -17.16619,-2.23907 z"
           style="fill:url(#linearGradient4941);fill-opacity:1;stroke:#000000;stroke-width:4.55445814;stroke-linecap:butt;stroke-linejoin:miter;stroke-miterlimit:4;stroke-opacity:1;stroke-dasharray:none" />
        <path
           id="path4709"
           d="m -121.65598,438.85781 0,-26.86881 27.615164,-0.74635 1.492711,85.08455 -26.868805,2.23906 -2.23907,-59.70845 z"
           style="fill:url(#linearGradient4943);fill-opacity:1;stroke:#000000;stroke-width:4.55445814;stroke-linecap:butt;stroke-linejoin:miter;stroke-miterlimit:4;stroke-opacity:1;stroke-dasharray:none" />
        <path
           id="path4711"
           d="m -107.47522,493.34177 -0.74635,-24.62973 25.376089,0 0,29.10787 -24.629739,-1.49271 26.868806,-3.73178 -0.746356,-67.17201 41.049563,5.22449 -5.970846,64.18659 -35.078717,2.23906 0,0"
           style="fill:url(#linearGradient4945);fill-opacity:1;stroke:#000000;stroke-width:4.55445814;stroke-linecap:butt;stroke-linejoin:miter;stroke-miterlimit:4;stroke-opacity:1;stroke-dasharray:none" />
        <path
           id="path4713"
           d="m -29.107872,493.34177 -2.985422,-86.57726 -1.492712,-14.92711 16.419825,0 -0.746355,9.70262 8.2099121,1.49272 -1.4927111,93.29446 -17.912537,0 -3.731778,-2.23907 3.731778,-0.74636 z"
           style="fill:url(#linearGradient4947);fill-opacity:1;stroke:#000000;stroke-width:4.55445814;stroke-linecap:butt;stroke-linejoin:miter;stroke-miterlimit:4;stroke-opacity:1;stroke-dasharray:none" />
        <path
           id="path4715"
           d="m 2.9854227,497.07355 -4.4781341,-64.93294 20.1516034,2.23907 -3.731778,61.94752 -11.9416913,0.74635 z"
           style="fill:url(#linearGradient4949);fill-opacity:1;stroke:#000000;stroke-width:4.55445814;stroke-linecap:butt;stroke-linejoin:miter;stroke-miterlimit:4;stroke-opacity:1;stroke-dasharray:none" />
        <path
           id="path4717"
           d="m 22.390671,492.59542 -1.492712,-47.02041 5.22449,0.74636 0,-8.20992 6.717201,0.74636 0,8.20991 5.970846,0 -2.239067,46.27405 -14.180758,-0.74635 z"
           style="fill:url(#linearGradient4951);fill-opacity:1;stroke:#000000;stroke-width:4.55445814;stroke-linecap:butt;stroke-linejoin:miter;stroke-miterlimit:4;stroke-opacity:1;stroke-dasharray:none" />
        <path
           id="path4719"
           d="m 35.825073,491.10271 0.746356,-55.97668 21.644314,3.73178 -2.985422,58.21574 -19.405248,-5.97084 z"
           style="fill:url(#linearGradient4953);fill-opacity:1;stroke:#000000;stroke-width:4.55445814;stroke-linecap:butt;stroke-linejoin:miter;stroke-miterlimit:4;stroke-opacity:1;stroke-dasharray:none" />
        <path
           sodipodi:nodetypes="cccccc"
           id="path4721"
           d="m 55.976677,494.08813 -1.492712,-65.6793 15.67347,0.74635 0.746355,67.91837 -5.970845,0.74636 -8.956268,-3.73178 z"
           style="fill:url(#linearGradient4955);fill-opacity:1;stroke:#000000;stroke-width:4.55445814;stroke-linecap:butt;stroke-linejoin:miter;stroke-miterlimit:4;stroke-opacity:1;stroke-dasharray:none" />
        <path
           id="path4723"
           d="m 79.679051,492.58832 -2.797311,-43.01546 9.324371,-19.66421 13.986559,22.12223 2.79731,39.94293 -23.310929,0.61451 z"
           style="fill:url(#linearGradient4957);fill-opacity:1;stroke:#000000;stroke-width:4.55445814;stroke-linecap:butt;stroke-linejoin:miter;stroke-miterlimit:4;stroke-opacity:1;stroke-dasharray:none" />
        <path
           id="path4725"
           d="m 111.95335,490.35635 -5.22449,-55.23032 18.6589,2.23907 0,54.48396 -13.43441,-1.49271 z"
           style="fill:url(#linearGradient4959);fill-opacity:1;stroke:#000000;stroke-width:4.55445814;stroke-linecap:butt;stroke-linejoin:miter;stroke-miterlimit:4;stroke-opacity:1;stroke-dasharray:none" />
        <path
           id="path4727"
           d="m 126.88047,488.86364 -1.49271,-51.49854 28.36151,0.74635 0,54.48397 -26.8688,-3.73178 z"
           style="fill:url(#linearGradient4961);fill-opacity:1;stroke:#000000;stroke-width:4.55445814;stroke-linecap:butt;stroke-linejoin:miter;stroke-miterlimit:4;stroke-opacity:1;stroke-dasharray:none" />
        <path
           id="path4729"
           d="m 138.82216,438.85781 -1.49271,-53.73761 5.22449,0 0,-11.19534 8.95626,0 5.97085,118.67056 -14.18076,1.49271 -4.47813,-55.23032 z"
           style="fill:url(#linearGradient4963);fill-opacity:1;stroke:#000000;stroke-width:4.55445814;stroke-linecap:butt;stroke-linejoin:miter;stroke-miterlimit:4;stroke-opacity:1;stroke-dasharray:none" />
        <path
           id="path4731"
           d="m 157.48105,491.84906 -2.23907,-82.09912 8.20992,-14.92712 0,-18.65889 2.23906,25.37609 8.95627,11.19534 -2.98542,79.86006 -14.18076,-0.74636 z"
           style="fill:url(#linearGradient4965);fill-opacity:1;stroke:#000000;stroke-width:4.55445814;stroke-linecap:butt;stroke-linejoin:miter;stroke-miterlimit:4;stroke-opacity:1;stroke-dasharray:none" />
        <path
           id="path4733"
           d="m 179.87172,490.35635 -2.23907,-126.13411 28.36152,-2.98542 2.23907,128.37318 -28.36152,0.74635 z"
           style="fill:url(#linearGradient4967);fill-opacity:1;stroke:#000000;stroke-width:4.55445814;stroke-linecap:butt;stroke-linejoin:miter;stroke-miterlimit:4;stroke-opacity:1;stroke-dasharray:none" />
        <path
           id="path4735"
           d="m 214.20408,491.84906 -2.98542,-88.06997 59.70845,2.98542 -3.73177,85.08455 -52.99126,0 z"
           style="fill:url(#linearGradient4969);fill-opacity:1;stroke:#000000;stroke-width:4.55445814;stroke-linecap:butt;stroke-linejoin:miter;stroke-miterlimit:4;stroke-opacity:1;stroke-dasharray:none" />
        <path
           id="path4737"
           d="m 276.89796,488.11728 0,-41.79591 16.41982,2.23906 0.74636,-11.19533 1.49271,-5.97085 5.97085,6.7172 1.49271,55.23032 -26.12245,-5.22449 z"
           style="fill:url(#linearGradient4971);fill-opacity:1;stroke:#000000;stroke-width:4.55445814;stroke-linecap:butt;stroke-linejoin:miter;stroke-miterlimit:4;stroke-opacity:1;stroke-dasharray:none" />
        <path
           id="path4739"
           d="m 310.48397,492.59542 -5.22449,-44.78134 28.36151,-3.73178 5.97085,11.94169 10.44898,0 6.7172,38.8105 -46.27405,-2.23907 z"
           style="fill:url(#linearGradient4973);fill-opacity:1;stroke:#000000;stroke-width:4.55445814;stroke-linecap:butt;stroke-linejoin:miter;stroke-miterlimit:4;stroke-opacity:1;stroke-dasharray:none" />
        <path
           id="path4741"
           d="m 346.30904,453.03857 2.98542,-35.07872 14.18076,0 6.7172,77.62099 -16.41983,0 -7.46355,-42.54227 z"
           style="fill:url(#linearGradient4975);fill-opacity:1;stroke:#000000;stroke-width:4.55445814;stroke-linecap:butt;stroke-linejoin:miter;stroke-miterlimit:4;stroke-opacity:1;stroke-dasharray:none" />
        <path
           id="path4743"
           d="m 367.95335,491.84906 c 1.49271,-5.22449 3.73178,-68.66472 3.73178,-68.66472 l 11.94169,-0.74636 2.23907,72.39651 -17.91254,-2.98543 z"
           style="fill:url(#linearGradient4977);fill-opacity:1;stroke:#000000;stroke-width:4.55445814;stroke-linecap:butt;stroke-linejoin:miter;stroke-miterlimit:4;stroke-opacity:1;stroke-dasharray:none" />
        <path
           id="path4745"
           d="m 378.78004,493.24477 c 0,-3.48642 -0.87985,-57.87452 -0.87985,-57.87452 l 18.9168,0.69729 -1.7597,59.26908 -16.27725,-2.09185 z"
           style="fill:url(#linearGradient4979);fill-opacity:1;stroke:#000000;stroke-width:4.55445814;stroke-linecap:butt;stroke-linejoin:miter;stroke-miterlimit:4;stroke-opacity:1;stroke-dasharray:none" />
        <path
           id="path4747"
           d="m -79.113703,492.59542 c 0,-8.20991 -0.746355,-26.86881 -0.746355,-26.86881 l 41.795918,-1.49271 -1.492711,29.10787 -39.556852,-0.74635 z"
           style="fill:url(#linearGradient4981);fill-opacity:1;stroke:#000000;stroke-width:4.55445814;stroke-linecap:butt;stroke-linejoin:miter;stroke-miterlimit:4;stroke-opacity:1;stroke-dasharray:none" />
        <path
           id="path4749"
           d="m -26.122449,494.08813 2.239067,-17.91254 9.702624,-6.7172 6.7172011,8.95627 -2.9854231,18.65889 -15.673469,-2.98542 z"
           style="fill:url(#linearGradient4983);fill-opacity:1;stroke:#000000;stroke-width:4.55445814;stroke-linecap:butt;stroke-linejoin:miter;stroke-miterlimit:4;stroke-opacity:1;stroke-dasharray:none" />
        <path
           id="path4751"
           d="m 18.658892,496.3272 c 0,0 -5.970845,-35.07872 -0.746356,-32.0933 5.22449,2.98543 11.941691,3.73178 11.941691,3.73178 l -0.746355,28.36152 -10.44898,0 z"
           style="fill:url(#linearGradient4985);fill-opacity:1;stroke:#000000;stroke-width:4.55445814;stroke-linecap:butt;stroke-linejoin:miter;stroke-miterlimit:4;stroke-opacity:1;stroke-dasharray:none" />
        <path
           id="path4753"
           d="m 38.06414,498.56626 c 0,-3.73177 -6.717201,-31.34693 0.746356,-29.85422 7.463557,1.49271 17.912536,-0.74636 17.912536,-0.74636 l -4.478134,29.10787 -14.180758,1.49271 z"
           style="fill:url(#linearGradient4987);fill-opacity:1;stroke:#000000;stroke-width:4.55445814;stroke-linecap:butt;stroke-linejoin:miter;stroke-miterlimit:4;stroke-opacity:1;stroke-dasharray:none" />
        <path
           id="path4755"
           d="m -37.317784,494.83449 c 0,-6.71721 0.746355,-24.62974 0.746355,-24.62974 l 6.717202,0 1.492711,26.12245 -8.956268,-1.49271 z"
           style="fill:url(#linearGradient4989);fill-opacity:1;stroke:#000000;stroke-width:4.55445814;stroke-linecap:butt;stroke-linejoin:miter;stroke-miterlimit:4;stroke-opacity:1;stroke-dasharray:none" />
        <path
           id="path4757"
           d="m -129.86589,458.26306 c 0,0 9.70262,-22.39067 9.70262,-19.40525 0,2.98542 6.71721,12.68805 6.71721,12.68805 l 0,5.97084 3.73177,0.74636 0.74636,34.33236 c 0,0 -18.65889,5.22449 -19.40525,2.23907 -0.74635,-2.98543 -1.49271,-36.57143 -1.49271,-36.57143 z"
           style="fill:url(#linearGradient4991);fill-opacity:1;stroke:#000000;stroke-width:4.55445814;stroke-linecap:butt;stroke-linejoin:miter;stroke-miterlimit:4;stroke-opacity:1;stroke-dasharray:none" />
      </g>
      <path
         id="path4805"
         d="m -381.85003,497.71363 24.41016,-11.85429 22.04785,4.74172 c 0,0 18.11076,-2.96357 22.83527,-1.77815 4.72456,1.18543 24.41015,2.37086 24.41015,2.37086 l 34.64667,-5.33443 22.83528,10.66886 36.22149,-7.70529 34.64663,7.11258 44.09574,-10.66886 c 0,0 34.646645,3.55628 48.032848,2.96357 13.386199,-0.59271 62.2064714,-1.77814 62.2064714,-1.77814 l 14.9610516,-3.55629 80.317227,3.55629 c 0,0 119.688392,-4.74172 121.263262,-1.18543 1.57484,3.55628 22.83528,6.51985 22.83528,6.51985 l 99.21539,-1.77814 c 0,0 54.33227,-11.26157 59.05678,-2.96357 4.72455,8.298 8.66166,8.89072 8.66166,8.89072 l -782.69921,1.77814 z"
         style="fill:#a0522d;stroke:#000000;stroke-width:3.79999995;stroke-linecap:butt;stroke-linejoin:miter;stroke-miterlimit:4;stroke-opacity:1;stroke-dasharray:none" />
      <path
         style="opacity:0.37368421;fill:#000000;stroke:#000000;stroke-width:3.79999995;stroke-linecap:butt;stroke-linejoin:miter;stroke-miterlimit:4;stroke-opacity:1;stroke-dasharray:none"
         d="m -381.83112,498.16403 24.40898,14.02385 22.04678,-5.60954 c 0,0 18.10989,3.50595 22.83417,2.10358 4.72433,-1.40239 24.40897,-2.80477 24.40897,-2.80477 l 34.645,6.31073 22.83417,-12.62146 36.21974,9.1155 34.64496,-8.41432 44.09361,12.62147 c 0,0 34.64497,-4.20715 48.030526,-3.50596 13.385553,0.70118 62.2034662,2.10357 62.2034662,2.10357 l 14.9603288,4.20716 80.313346,-4.20716 c 0,0 119.682613,5.60954 121.257403,1.40239 1.57476,-4.20715 22.83418,-7.71311 22.83418,-7.71311 l 99.21059,2.10357 c 0,0 54.32965,13.32265 59.05393,3.50596 4.72432,-9.81669 8.66124,-10.51789 8.66124,-10.51789 l -782.66139,-2.10357 z"
         id="path4829" />
    </g>
    <path
       sodipodi:type="arc"
       style="opacity:0.37368421;fill:#d3d3d3;fill-opacity:1;fill-rule:evenodd;stroke:#000000;stroke-width:1.89999998;stroke-linecap:round;stroke-linejoin:round;stroke-miterlimit:4;stroke-opacity:1;stroke-dasharray:none;stroke-dashoffset:0"
       id="path4995"
       sodipodi:cx="-12.666084"
       sodipodi:cy="420.64124"
       sodipodi:rx="25.332169"
       sodipodi:ry="26.915428"
       d="m 12.666084,420.64124 a 25.332169,26.915428 0 1 1 -50.664337,0 25.332169,26.915428 0 1 1 50.664337,0 z"
       transform="matrix(0.42810049,0,0,0.38862654,90.655746,755.69009)" />
  </g>
</svg>
