<?xml version="1.0" encoding="UTF-8" standalone="no"?>
<svg
   xmlns:dc="http://purl.org/dc/elements/1.1/"
   xmlns:cc="http://creativecommons.org/ns#"
   xmlns:rdf="http://www.w3.org/1999/02/22-rdf-syntax-ns#"
   xmlns:svg="http://www.w3.org/2000/svg"
   xmlns="http://www.w3.org/2000/svg"
   xmlns:sodipodi="http://sodipodi.sourceforge.net/DTD/sodipodi-0.dtd"
   xmlns:inkscape="http://www.inkscape.org/namespaces/inkscape"
   version="1.1"
   id="Layer_1"
   x="0px"
   y="0px"
   width="35.998016"
   height="36.000973"
   viewBox="0 0 35.998016 36.000973"
   enable-background="new 0 0 100 100"
   xml:space="preserve"
   inkscape:version="0.48.1 r9760"
   sodipodi:docname="noun_project_1250.svg"><metadata
   id="metadata13"><rdf:RDF><cc:Work
       rdf:about=""><dc:format>image/svg+xml</dc:format><dc:type
         rdf:resource="http://purl.org/dc/dcmitype/StillImage" /><dc:title></dc:title></cc:Work></rdf:RDF></metadata><defs
   id="defs11" /><sodipodi:namedview
   pagecolor="#ffffff"
   bordercolor="#666666"
   borderopacity="1"
   objecttolerance="10"
   gridtolerance="10"
   guidetolerance="10"
   inkscape:pageopacity="0"
   inkscape:pageshadow="2"
   inkscape:window-width="1280"
   inkscape:window-height="776"
   id="namedview9"
   showgrid="false"
   fit-margin-top="0"
   fit-margin-left="0"
   fit-margin-right="0"
   fit-margin-bottom="0"
   inkscape:zoom="9.44"
   inkscape:cx="3.8533006"
   inkscape:cy="5.4446732"
   inkscape:window-x="0"
   inkscape:window-y="24"
   inkscape:window-maximized="1"
   inkscape:current-layer="Layer_1" />

<path
   d="m 27.70617,33.234475 c 0.325861,-0.20958 0.643154,-0.430411 0.954015,-0.660388 0.09425,-0.06858 0.185654,-0.139959 0.27847,-0.211353 0.30025,-0.230606 0.596237,-0.464009 0.880083,-0.713587 0.06395,-0.05492 0.123607,-0.115462 0.18684,-0.171082 0.554966,-0.499062 1.077879,-1.029709 1.568017,-1.594058 0.07222,-0.08326 0.151537,-0.163752 0.221623,-0.249121 0.194176,-0.231242 0.375552,-0.472289 0.556226,-0.712624 0.137271,-0.180618 0.273127,-0.361225 0.403286,-0.547447 0.156737,-0.226017 0.308498,-0.455533 0.456698,-0.688558 0.142595,-0.225913 0.278099,-0.454602 0.410052,-0.685387 0.123581,-0.215166 0.247886,-0.428216 0.362941,-0.648977 0.171524,-0.33078 0.328143,-0.669229 0.479074,-1.011878 0.07791,-0.17594 0.15795,-0.349773 0.230179,-0.528499 0.176413,-0.43547 0.335092,-0.878589 0.476738,-1.330068 0.05597,-0.177899 0.1013,-0.36067 0.151604,-0.539943 0.09715,-0.347912 0.187912,-0.699312 0.264489,-1.056266 0.04172,-0.193351 0.07989,-0.387384 0.114514,-0.583512 0.06728,-0.371735 0.12039,-0.746195 0.164276,-1.125536 0.02064,-0.174812 0.04411,-0.34823 0.0598,-0.523712 0.04755,-0.554029 0.07668,-1.113579 0.07253,-1.67925 -0.07216,-9.9253948 -8.206377,-17.94105777 -18.13105,-17.86678477 -0.565671,0.0042 -1.124021,0.04219 -1.678004,0.09717 -0.175233,0.01826 -0.348288,0.04428 -0.522778,0.06748 -0.377944,0.05015 -0.752295,0.108056 -1.123002,0.180783 -0.195599,0.0375 -0.38905,0.07852 -0.581769,0.123068 -0.355078,0.08251 -0.705119,0.177008 -1.052269,0.279968 -0.179227,0.05223 -0.361313,0.100236 -0.537659,0.15951497 -0.449351,0.14826 -0.890794,0.314139 -1.322925,0.496215 -0.177646,0.07485 -0.350286,0.157432 -0.525062,0.237913 -0.340397,0.155945 -0.6758077,0.316803 -1.0047357,0.493878 -0.218346,0.117572 -0.43025,0.245703 -0.643579,0.37243 -0.229525,0.136039 -0.456912,0.274184 -0.679293,0.42007 -0.231536,0.150903 -0.457385,0.306007 -0.681778,0.466758 -0.184292,0.132878 -0.362173,0.272074 -0.541468,0.41128 -0.238358,0.184895 -0.476716,0.36979 -0.70438,0.566628 -0.08433,0.07133 -0.163646,0.15182 -0.245841,0.225257 -0.557092,0.498371 -1.080005,1.029018 -1.570866,1.591251 -0.05469,0.06404 -0.114347,0.124586 -0.16832,0.189331 -0.245384,0.28748 -0.474416,0.586862 -0.700589,0.890465 -0.06932,0.09314 -0.139355,0.185583 -0.207242,0.281543 -0.225388,0.314204 -0.441537,0.634705 -0.646311,0.963607 -0.04053,0.06535 -0.07823,0.1321 -0.118751,0.198867 C 0.94224931,11.572277 -0.02550069,14.792561 5.1131412e-4,18.239608 0.07267131,28.165004 8.2068893,36.180667 18.131562,36.106394 c 3.44776,-0.02531 6.652787,-1.039522 9.380361,-2.747455 0.06332,-0.04431 0.129502,-0.08298 0.194247,-0.124464 z"
   id="path5"
   inkscape:connector-curvature="0"
   style="fill:#008000"
   sodipodi:nodetypes="ccccccccccccccccccccccccccccscccccccccccccccccc" />

<path
   style="fill:#ffffff;stroke:#ffffff;stroke-width:1;stroke-opacity:1"
   inkscape:connector-curvature="0"
   id="path3030"
   d="m 15.765926,20.372522 -8.5508066,0.06348 -0.01643,-2.23864 -0.01661,-2.262681 8.5508166,-0.06206 -0.06277,-8.5501044 4.499204,-0.03232 0.06276,8.5486894 8.550817,-0.06206 0.03303,4.499906 -8.550807,0.06348 0.06276,8.54869 -4.499194,0.03374 -0.06277,-8.550105 z"
   sodipodi:nodetypes="ccccccccccccccc" /></svg>