<?xml version="1.0" encoding="UTF-8" standalone="no"?>
<!-- Generator: Adobe Illustrator 15.1.0, SVG Export Plug-In . SVG Version: 6.00 Build 0)  -->

<svg
   xmlns:dc="http://purl.org/dc/elements/1.1/"
   xmlns:cc="http://creativecommons.org/ns#"
   xmlns:rdf="http://www.w3.org/1999/02/22-rdf-syntax-ns#"
   xmlns:svg="http://www.w3.org/2000/svg"
   xmlns="http://www.w3.org/2000/svg"
   xmlns:sodipodi="http://sodipodi.sourceforge.net/DTD/sodipodi-0.dtd"
   xmlns:inkscape="http://www.inkscape.org/namespaces/inkscape"
   version="1.1"
   id="Layer_1"
   x="0px"
   y="0px"
   width="60.02581"
   height="39.617603"
   viewBox="0 0 60.02581 39.617603"
   enable-background="new 0 0 100 100"
   xml:space="preserve"
   inkscape:version="0.48.1 r9760"
   sodipodi:docname="noun_project_463.svg"><metadata
   id="metadata3059"><rdf:RDF><cc:Work
       rdf:about=""><dc:format>image/svg+xml</dc:format><dc:type
         rdf:resource="http://purl.org/dc/dcmitype/StillImage" /></cc:Work></rdf:RDF></metadata><defs
   id="defs3057" /><sodipodi:namedview
   pagecolor="#ffffff"
   bordercolor="#666666"
   borderopacity="1"
   objecttolerance="10"
   gridtolerance="10"
   guidetolerance="10"
   inkscape:pageopacity="0"
   inkscape:pageshadow="2"
   inkscape:window-width="1280"
   inkscape:window-height="776"
   id="namedview3055"
   showgrid="false"
   inkscape:zoom="2.88"
   inkscape:cx="31.054574"
   inkscape:cy="20.849563"
   inkscape:window-x="0"
   inkscape:window-y="24"
   inkscape:window-maximized="1"
   inkscape:current-layer="Layer_1"
   fit-margin-top="0"
   fit-margin-left="0"
   fit-margin-right="0"
   fit-margin-bottom="0" />
<path
   d="m 22.098811,0.537801 c -7.138,5.941 -14.276003,11.883 -21.41400305,17.824 -0.524,0.437 -0.71499998,0.951 -0.68099998,1.447 -0.034,0.496 0.15699998,1.011 0.68099998,1.447 7.13700005,5.941 14.27600305,11.883 21.41400305,17.824 1.319,1.1 3.494,0.461 3.494,-1.446 0,-2.494 0,-4.986 0,-7.479 10.795,0 21.59,0 32.386,0 1.116,0 2.047,-0.931 2.047,-2.047 0,-5.531 0,-11.064 0,-16.598 0,-1.116 -0.931,-2.0469998 -2.047,-2.0469998 -10.796,0 -21.591,0 -32.386,0 0,-2.4930002 0,-4.9850002 0,-7.4790002 0,-1.907 -2.175,-2.54600001 -3.494,-1.446 z"
   id="path3051"
   inkscape:connector-curvature="0" />

</svg>