<?xml version="1.0" encoding="UTF-8" standalone="no"?>
<!-- Generator: Adobe Illustrator 15.1.0, SVG Export Plug-In . SVG Version: 6.00 Build 0)  -->

<svg
   xmlns:dc="http://purl.org/dc/elements/1.1/"
   xmlns:cc="http://creativecommons.org/ns#"
   xmlns:rdf="http://www.w3.org/1999/02/22-rdf-syntax-ns#"
   xmlns:svg="http://www.w3.org/2000/svg"
   xmlns="http://www.w3.org/2000/svg"
   xmlns:sodipodi="http://sodipodi.sourceforge.net/DTD/sodipodi-0.dtd"
   xmlns:inkscape="http://www.inkscape.org/namespaces/inkscape"
   version="1.1"
   id="Layer_1"
   x="0px"
   y="0px"
   width="100"
   height="100"
   viewBox="0 0 100 100"
   enable-background="new 0 0 100 70"
   xml:space="preserve"
   inkscape:version="0.48.1 r9760"
   sodipodi:docname="effacer.svg"
   inkscape:export-filename="/home/gcoulais/Immobilier/src/Qt/AgenceImmobiliere/images/effacer_96x96.png"
   inkscape:export-xdpi="86.400002"
   inkscape:export-ydpi="86.400002"><metadata
   id="metadata3033"><rdf:RDF><cc:Work
       rdf:about=""><dc:format>image/svg+xml</dc:format><dc:type
         rdf:resource="http://purl.org/dc/dcmitype/StillImage" /><dc:title></dc:title></cc:Work></rdf:RDF></metadata><defs
   id="defs3031" /><sodipodi:namedview
   pagecolor="#ffffff"
   bordercolor="#666666"
   borderopacity="1"
   objecttolerance="10"
   gridtolerance="10"
   guidetolerance="10"
   inkscape:pageopacity="0"
   inkscape:pageshadow="2"
   inkscape:window-width="1280"
   inkscape:window-height="776"
   id="namedview3029"
   showgrid="false"
   inkscape:zoom="4.1142857"
   inkscape:cx="9.4097222"
   inkscape:cy="35"
   inkscape:window-x="0"
   inkscape:window-y="24"
   inkscape:window-maximized="1"
   inkscape:current-layer="Layer_1" />
<g
   id="g3023"
   transform="matrix(-1,0,0,-1,100.00006,85)">
	<path
   d="m 99.154,32.913 -31,-32 C 67.59,0.329 66.812,0 66,0 H 3 C 1.343,0 0,1.343 0,3 v 64 c 0,1.657 1.343,3 3,3 h 63 c 0.812,0 1.59,-0.329 2.155,-0.913 l 31,-32 c 1.127,-1.163 1.127,-3.011 -0.001,-4.174 z M 64.729,64 H 6 V 6 H 64.729 L 92.823,35 64.729,64 z"
   id="path3025"
   inkscape:connector-curvature="0" />
	<polygon
   points="19.353,57.138 35.5,40.708 51.647,57.138 57.353,51.53 41.108,35 57.353,18.471 51.647,12.863 35.5,29.293 19.353,12.863 13.647,18.471 29.892,35 13.647,51.53 "
   id="polygon3027" />
</g>
</svg>