<?xml version="1.0" encoding="UTF-8" standalone="no"?>
<svg
   xmlns:dc="http://purl.org/dc/elements/1.1/"
   xmlns:cc="http://creativecommons.org/ns#"
   xmlns:rdf="http://www.w3.org/1999/02/22-rdf-syntax-ns#"
   xmlns:svg="http://www.w3.org/2000/svg"
   xmlns="http://www.w3.org/2000/svg"
   xmlns:sodipodi="http://sodipodi.sourceforge.net/DTD/sodipodi-0.dtd"
   xmlns:inkscape="http://www.inkscape.org/namespaces/inkscape"
   version="1.1"
   id="Layer_1"
   x="0px"
   y="0px"
   width="200"
   height="74.169998"
   viewBox="0 0 500 185.42499"
   enable-background="new 0 0 250 250"
   xml:space="preserve"
   inkscape:version="0.48.1 r9760"
   sodipodi:docname="Gotosouhaits.svg"
   inkscape:export-filename="/home/gcoulais/Immobilier/src/Qt/AgenceImmobiliere/images/gotoBiens_48.png"
   inkscape:export-xdpi="58.244576"
   inkscape:export-ydpi="58.244576"><metadata
   id="metadata72"><rdf:RDF><cc:Work
       rdf:about=""><dc:format>image/svg+xml</dc:format><dc:type
         rdf:resource="http://purl.org/dc/dcmitype/StillImage" /><dc:title></dc:title></cc:Work></rdf:RDF></metadata><defs
   id="defs70"><inkscape:perspective
   sodipodi:type="inkscape:persp3d"
   inkscape:vp_x="0 : 63.748917 : 1"
   inkscape:vp_y="0 : 1000 : 0"
   inkscape:vp_z="72.047356 : 63.748917 : 1"
   inkscape:persp3d-origin="36.023678 : 42.499278 : 1"
   id="perspective12" />
	
	
	
	
	
	
	
	
	
	
</defs><sodipodi:namedview
   pagecolor="#ffffff"
   bordercolor="#666666"
   borderopacity="1"
   objecttolerance="10"
   gridtolerance="10"
   guidetolerance="10"
   inkscape:pageopacity="0"
   inkscape:pageshadow="2"
   inkscape:window-width="1280"
   inkscape:window-height="776"
   id="namedview68"
   showgrid="false"
   fit-margin-top="0"
   fit-margin-left="0"
   fit-margin-right="0"
   fit-margin-bottom="0"
   inkscape:zoom="1.8314066"
   inkscape:cx="110.2108"
   inkscape:cy="-6.0761357"
   inkscape:window-x="0"
   inkscape:window-y="24"
   inkscape:window-maximized="1"
   inkscape:current-layer="Layer_1" />

<path
   d="m 173.98794,166.84558 c 27.45898,-22.85428 54.91797,-45.71239 82.37695,-68.566663 2.01577,-1.681079 2.75052,-3.658379 2.61972,-5.566422 0.1308,-1.908052 -0.60395,-3.889197 -2.61972,-5.566422 -27.45512,-22.854276 -54.91797,-45.712387 -82.37695,-68.566663 -5.07401,-4.231541 -13.44097,-1.773412 -13.44097,5.562578 0,9.594104 0,19.18051 0,28.77076 -41.52697,0 -83.053968,0 -124.584803,0 -4.293109,0 -7.87455,3.581443 -7.87455,7.874551 0,21.277054 0,42.561791 0,63.850391 0,4.29311 3.581441,7.87455 7.87455,7.87455 41.530835,0 83.057833,0 124.584803,0 0,9.59025 0,19.17666 0,28.77075 0,7.33599 8.36696,9.79414 13.44097,5.56259 z"
   id="path3051"
   inkscape:connector-curvature="0"
   style="fill:none;stroke:#000000;stroke-width:19.23436356;stroke-miterlimit:4;stroke-dasharray:none" /><g
   transform="matrix(1.3697498,0,0,1.3697498,305.58514,5.9427717)"
   id="g3159"><path
     d="m 98.574,117.55601 c -2.116,-10.919 -31.236,-9.758 -38.254,-18.310008 -1.48,-1.805 -1.48,-1.805 -0.488,-8.507 1.694,-7.502 3.229,-2.846 5.651,-17.809 2.034,-12.566 -2.306,-23.364 -15.483,-23.364 -13.177,0 -17.517,10.798 -15.483,23.364 2.422,14.963 3.956,10.307 5.651,17.809 0.992,6.702 0.992,6.702 -0.488,8.507 C 32.662,107.79801 3.5420001,106.63701 1.4260001,117.55601 1.1750001,118.84801 0,126 0,126 l 100,0 c 0,0 -1.175,-7.15199 -1.426,-8.44399 z"
     id="path68"
     inkscape:connector-curvature="0" /><circle
     d="m 33.34,45.334 c 0,5.018059 -4.067941,9.086 -9.086,9.086 -5.01806,0 -9.086001,-4.067941 -9.086001,-9.086 0,-5.01806 4.067941,-9.086001 9.086001,-9.086001 5.018059,0 9.086,4.067941 9.086,9.086001 z"
     style="fill:#000000"
     sodipodi:ry="9.0860004"
     sodipodi:rx="9.0860004"
     sodipodi:cy="45.334"
     sodipodi:cx="24.254"
     id="circle3164"
     r="9.0860004"
     cy="45.334"
     cx="24.254"
     transform="matrix(0.25002908,0,0,0.25002908,68.074537,51.251916)" /><path
     style="fill:#000000"
     inkscape:connector-curvature="0"
     id="path3166"
     d="m 75.425236,16.169461 c 0,0 -1.900831,-4.719731 -8.850357,-4.455459 0,0 -10.02857,0.784558 -10.02857,10.29009 0,0 0.132136,10.094637 10.291465,10.094637 10.159329,0 38.474976,0 38.474976,0 0,0 9.50553,0.91807 9.50553,-10.028569 0,0 0.19682,-9.439464 -9.57023,-9.572977 0,0 -2.81752,-0.195451 -4.39214,0.788687 0,0 -1.70125,-12.65064376 -15.597555,-12.58732776 0,0 -9.900563,-0.589107 -15.01395,12.06291276" /><circle
     d="m 41.683,32.817001 c 0,2.041245 -1.654756,3.696 -3.696,3.696 -2.041245,0 -3.696001,-1.654755 -3.696001,-3.696 0,-2.041244 1.654756,-3.696 3.696001,-3.696 2.041244,0 3.696,1.654756 3.696,3.696 z"
     style="fill:#000000"
     sodipodi:ry="3.6960001"
     sodipodi:rx="3.6960001"
     sodipodi:cy="32.817001"
     sodipodi:cx="37.987"
     id="circle3168"
     r="3.6960001"
     cy="32.817001"
     cx="37.987"
     transform="translate(43.287517,21.818732)" /><circle
     d="m 41.683,32.817001 c 0,2.041245 -1.654756,3.696 -3.696,3.696 -2.041245,0 -3.696001,-1.654755 -3.696001,-3.696 0,-2.041244 1.654756,-3.696 3.696001,-3.696 2.041244,0 3.696,1.654756 3.696,3.696 z"
     style="fill:#000000"
     sodipodi:ry="3.6960001"
     sodipodi:rx="3.6960001"
     sodipodi:cy="32.817001"
     sodipodi:cx="37.987"
     id="circle3168-8"
     r="3.6960001"
     cy="32.817001"
     cx="37.987"
     transform="matrix(1.4790779,0,0,1.4790779,26.445619,-7.2360307)" /></g></svg>