<?xml version="1.0" encoding="UTF-8" standalone="no"?>
<svg
   xmlns:dc="http://purl.org/dc/elements/1.1/"
   xmlns:cc="http://creativecommons.org/ns#"
   xmlns:rdf="http://www.w3.org/1999/02/22-rdf-syntax-ns#"
   xmlns:svg="http://www.w3.org/2000/svg"
   xmlns="http://www.w3.org/2000/svg"
   xmlns:sodipodi="http://sodipodi.sourceforge.net/DTD/sodipodi-0.dtd"
   xmlns:inkscape="http://www.inkscape.org/namespaces/inkscape"
   version="1.1"
   id="Layer_1"
   x="0px"
   y="0px"
   width="200"
   height="74.169998"
   viewBox="0 0 500 185.42499"
   enable-background="new 0 0 250 250"
   xml:space="preserve"
   inkscape:version="0.48.1 r9760"
   sodipodi:docname="bien.svg"
   inkscape:export-filename="/home/spiquema/Documents/Immobilier/src/Qt/AgenceImmobiliere/images/bien_48x48.png"
   inkscape:export-xdpi="41.400002"
   inkscape:export-ydpi="41.400002"><metadata
   id="metadata72"><rdf:RDF><cc:Work
       rdf:about=""><dc:format>image/svg+xml</dc:format><dc:type
         rdf:resource="http://purl.org/dc/dcmitype/StillImage" /><dc:title></dc:title></cc:Work></rdf:RDF></metadata><defs
   id="defs70" /><sodipodi:namedview
   pagecolor="#ffffff"
   bordercolor="#666666"
   borderopacity="1"
   objecttolerance="10"
   gridtolerance="10"
   guidetolerance="10"
   inkscape:pageopacity="0"
   inkscape:pageshadow="2"
   inkscape:window-width="1280"
   inkscape:window-height="776"
   id="namedview68"
   showgrid="false"
   fit-margin-top="0"
   fit-margin-left="0"
   fit-margin-right="0"
   fit-margin-bottom="0"
   inkscape:zoom="1.8314066"
   inkscape:cx="110.2108"
   inkscape:cy="-6.0761357"
   inkscape:window-x="0"
   inkscape:window-y="24"
   inkscape:window-maximized="1"
   inkscape:current-layer="Layer_1" />

<g
   id="g3885"
   transform="matrix(0.92638298,0,0,0.92638298,19.310505,-138.8851)"><g
     transform="matrix(0.88299391,0,0,0.88299391,279.87668,121.96588)"
     id="g3046"><g
       id="g3041"><g
         transform="translate(0.16,20)"
         id="g62">
	<polygon
   id="polygon64"
   points="125,57.582 187.579,120.75 212.928,146.337 250.159,146.337 208.717,104.505 208.717,68.996 182.764,68.996 182.764,78.308 125,20 62.42,83.168 -0.16,146.337 37.072,146.337 62.42,120.75 " />
	<path
   inkscape:connector-curvature="0"
   id="path66"
   d="M 125,61.832 62.42,125 l -21.138,21.337 0.055,0 0,83.663 167.325,0 0,-83.663 0.055,0 L 187.579,125 125,61.832 z m -39.944,132.004 -11.792,0 0,-10.667 11.792,0 0,10.667 z m 0,-12.918 -11.792,0 0,-12.918 11.792,0 0,12.918 z m 14.044,12.918 -11.792,0 0,-10.667 11.792,0 0,10.667 z m 0,-12.918 -11.792,0 0,-12.918 11.792,0 0,12.918 z m 79.9,42.415 -29.333,0 0,-55.333 29.333,0 0,55.333 z" />
</g></g></g><path
     style="fill:none;stroke:#000000;stroke-width:20.76286316;stroke-miterlimit:4;stroke-dasharray:none"
     inkscape:connector-curvature="0"
     id="path3051"
     d="m 166.96921,330.02423 c 29.64107,-24.67044 59.28215,-49.34502 88.92321,-74.01546 2.17596,-1.81467 2.9691,-3.9491 2.8279,-6.00877 0.1412,-2.05968 -0.65194,-4.19826 -2.8279,-6.00877 -29.6369,-24.67044 -59.28214,-49.34502 -88.92321,-74.01546 -5.47723,-4.56781 -14.50908,-1.91434 -14.50908,6.00462 0,10.35652 0,20.70473 0,31.05709 -44.82701,0 -89.654036,0 -134.485208,0 -4.63427,0 -8.500318,3.86605 -8.500318,8.50032 0,22.96788 0,45.94406 0,68.9244 0,4.63427 3.866048,8.50032 8.500318,8.50032 44.831172,0 89.658198,0 134.485208,0 0,10.35236 0,20.70057 0,31.05708 0,7.91896 9.03185,10.57245 14.50908,6.00463 z" /></g></svg>