<?xml version="1.0" encoding="UTF-8" standalone="no"?>
<svg
   xmlns:dc="http://purl.org/dc/elements/1.1/"
   xmlns:cc="http://creativecommons.org/ns#"
   xmlns:rdf="http://www.w3.org/1999/02/22-rdf-syntax-ns#"
   xmlns:svg="http://www.w3.org/2000/svg"
   xmlns="http://www.w3.org/2000/svg"
   xmlns:sodipodi="http://sodipodi.sourceforge.net/DTD/sodipodi-0.dtd"
   xmlns:inkscape="http://www.inkscape.org/namespaces/inkscape"
   version="1.1"
   id="Layer_1"
   x="0px"
   y="0px"
   width="100px"
   height="100px"
   viewBox="0 0 100 100"
   enable-background="new 0 0 100 100"
   xml:space="preserve"
   inkscape:version="0.48.1 r9760"
   sodipodi:docname="loupe.svg"
   inkscape:export-filename="/home/gcoulais/Immobilier/src/Qt/AgenceImmobiliere/images/loupe_96x96.png"
   inkscape:export-xdpi="86.400002"
   inkscape:export-ydpi="86.400002"><metadata
   id="metadata3025"><rdf:RDF><cc:Work
       rdf:about=""><dc:format>image/svg+xml</dc:format><dc:type
         rdf:resource="http://purl.org/dc/dcmitype/StillImage" /><dc:title></dc:title></cc:Work></rdf:RDF></metadata><defs
   id="defs3023" /><sodipodi:namedview
   pagecolor="#ffffff"
   bordercolor="#666666"
   borderopacity="1"
   objecttolerance="10"
   gridtolerance="10"
   guidetolerance="10"
   inkscape:pageopacity="0"
   inkscape:pageshadow="2"
   inkscape:window-width="1180"
   inkscape:window-height="688"
   id="namedview3021"
   showgrid="false"
   inkscape:zoom="2.88"
   inkscape:cx="50"
   inkscape:cy="50"
   inkscape:window-x="16"
   inkscape:window-y="24"
   inkscape:window-maximized="0"
   inkscape:current-layer="Layer_1" />
<path
   d="M54.691,9.382c-12.51-12.51-32.799-12.51-45.309,0s-12.51,32.798,0,45.309c11.551,11.552,29.715,12.408,42.281,2.635  l8.69,8.692v5.663L88.673,100L100,88.672L71.682,60.353h-5.663l-8.692-8.689C67.099,39.098,66.243,20.933,54.691,9.382z   M15.046,49.027c-9.382-9.383-9.382-24.601,0-33.981c9.381-9.382,24.599-9.382,33.981,0c9.381,9.381,9.381,24.598,0,33.981  C39.645,58.409,24.427,58.409,15.046,49.027z"
   id="path3019" />
</svg>