<?xml version="1.0" encoding="UTF-8" standalone="no"?>
<!-- Generator: Adobe Illustrator 14.0.0, SVG Export Plug-In . SVG Version: 6.00 Build 43363)  -->

<svg
   xmlns:dc="http://purl.org/dc/elements/1.1/"
   xmlns:cc="http://creativecommons.org/ns#"
   xmlns:rdf="http://www.w3.org/1999/02/22-rdf-syntax-ns#"
   xmlns:svg="http://www.w3.org/2000/svg"
   xmlns="http://www.w3.org/2000/svg"
   xmlns:sodipodi="http://sodipodi.sourceforge.net/DTD/sodipodi-0.dtd"
   xmlns:inkscape="http://www.inkscape.org/namespaces/inkscape"
   version="1.0"
   id="Layer_1"
   x="0px"
   y="0px"
   width="100"
   height="100"
   viewBox="0 0 100 100"
   enable-background="new 0 0 100 76.434"
   xml:space="preserve"
   inkscape:version="0.48.1 r9760"
   sodipodi:docname="personne_add.svg"
   inkscape:export-filename="/home/gcoulais/Immobilier/src/Qt/AgenceImmobiliere/images/personne_add_96x96.png"
   inkscape:export-xdpi="86.400002"
   inkscape:export-ydpi="86.400002"><metadata
   id="metadata3134"><rdf:RDF><cc:Work
       rdf:about=""><dc:format>image/svg+xml</dc:format><dc:type
         rdf:resource="http://purl.org/dc/dcmitype/StillImage" /><dc:title></dc:title></cc:Work></rdf:RDF></metadata><defs
   id="defs3132" /><sodipodi:namedview
   pagecolor="#ffffff"
   bordercolor="#666666"
   borderopacity="1"
   objecttolerance="10"
   gridtolerance="10"
   guidetolerance="10"
   inkscape:pageopacity="0"
   inkscape:pageshadow="2"
   inkscape:window-width="1280"
   inkscape:window-height="776"
   id="namedview3130"
   showgrid="false"
   inkscape:zoom="5.4027052"
   inkscape:cx="-2.4853773"
   inkscape:cy="46.325458"
   inkscape:window-x="0"
   inkscape:window-y="24"
   inkscape:window-maximized="1"
   inkscape:current-layer="Layer_1" />


<g
   id="g3071"
   transform="translate(0,-11.783001)"><path
     inkscape:connector-curvature="0"
     id="path3128"
     d="m 98.574,91.556002 c -2.116,-10.919 -31.236,-9.758 -38.254,-18.31 -1.48,-1.805 -1.48,-1.805 -0.488,-8.507 1.694,-7.502 3.229,-2.846 5.651,-17.809 2.034,-12.566 -2.306,-23.364 -15.483,-23.364 -13.177,0 -17.517,10.798 -15.483,23.364 2.422,14.963 3.956,10.307 5.651,17.809 0.992,6.702 0.992,6.702 -0.488,8.507 -7.018,8.552 -36.138,7.391 -38.254,18.31 C 1.175,92.848002 0,100 0,100 h 100 c 0,0 -1.175,-7.151998 -1.426,-8.443998 z" /><path
     style="fill:#008000"
     inkscape:connector-curvature="0"
     id="path5"
     d="m 88.750426,72.853583 c 0.244178,-0.157045 0.481935,-0.322522 0.714873,-0.494852 0.07066,-0.05139 0.139122,-0.104876 0.208667,-0.158374 0.224988,-0.172801 0.446784,-0.347698 0.659482,-0.534715 0.04796,-0.04115 0.09262,-0.08652 0.140006,-0.128198 0.415851,-0.373964 0.807693,-0.771596 1.174964,-1.194483 0.0541,-0.06239 0.113554,-0.122705 0.166075,-0.186675 0.145498,-0.173277 0.281413,-0.353902 0.416795,-0.533993 0.102861,-0.135344 0.204666,-0.270679 0.302199,-0.410221 0.117451,-0.169363 0.23117,-0.341347 0.342221,-0.515961 0.106848,-0.169284 0.20839,-0.340649 0.307265,-0.513584 0.0926,-0.161231 0.185745,-0.320877 0.271963,-0.486301 0.128526,-0.247865 0.245887,-0.501476 0.358984,-0.758235 0.05837,-0.131838 0.118358,-0.262097 0.172482,-0.396023 0.132198,-0.326313 0.251095,-0.658357 0.357238,-0.996666 0.04196,-0.133306 0.07591,-0.270262 0.113599,-0.404598 0.07276,-0.260702 0.140815,-0.524018 0.198191,-0.791496 0.03125,-0.144885 0.05987,-0.290281 0.08581,-0.437246 0.05043,-0.278554 0.09021,-0.55915 0.123093,-0.843404 0.01544,-0.130993 0.03305,-0.260941 0.04481,-0.392436 0.03567,-0.415153 0.05747,-0.834443 0.05433,-1.25832 -0.0541,-7.437441 -6.149317,-13.443856 -13.586222,-13.3882 -0.423877,0.0031 -0.842268,0.03161 -1.257386,0.07281 -0.131308,0.01368 -0.260984,0.03318 -0.391736,0.05057 -0.283206,0.03758 -0.563721,0.08097 -0.841504,0.135466 -0.146569,0.0281 -0.291529,0.05884 -0.43594,0.09222 -0.266072,0.06183 -0.52837,0.132638 -0.788501,0.209789 -0.134301,0.03914 -0.270745,0.07511 -0.402887,0.11953 -0.336714,0.111097 -0.667503,0.235396 -0.991313,0.371832 -0.133117,0.05609 -0.262482,0.117969 -0.393448,0.178276 -0.255071,0.116855 -0.506405,0.237391 -0.752882,0.37008 -0.163614,0.0881 -0.322401,0.184114 -0.482256,0.279075 -0.171991,0.101938 -0.34238,0.205455 -0.509018,0.314773 -0.173498,0.113076 -0.342734,0.229301 -0.51088,0.349757 -0.138096,0.09957 -0.271389,0.203875 -0.405741,0.308187 -0.17861,0.138548 -0.357219,0.277096 -0.527816,0.424594 -0.06319,0.05345 -0.122626,0.113764 -0.184217,0.168793 -0.417448,0.373446 -0.809285,0.771078 -1.177104,1.192379 -0.04098,0.04799 -0.08568,0.09336 -0.126128,0.141872 -0.183875,0.215419 -0.355497,0.439756 -0.524976,0.667257 -0.05194,0.06979 -0.104424,0.139063 -0.155294,0.21097 -0.168891,0.235444 -0.330859,0.475607 -0.484304,0.722064 -0.03037,0.04897 -0.05862,0.09899 -0.08898,0.149018 -1.249668,2.062435 -1.974837,4.475506 -1.955345,7.058497 0.05407,7.437444 6.149324,13.443858 13.586224,13.388202 2.583527,-0.01896 4.985167,-0.778949 7.02903,-2.058763 0.04743,-0.0332 0.09704,-0.06218 0.145558,-0.09327 z m -9.286314,-9.636998 -6.407415,0.04757 -0.01231,-1.677491 -0.01245,-1.695505 6.407422,-0.0465 -0.04704,-6.40689 3.371409,-0.02422 0.04703,6.405829 6.40742,-0.0465 0.02473,3.371936 -6.407411,0.04757 0.04706,6.405829 -3.371404,0.02528 -0.04704,-6.406889 z" /></g></svg>