<?xml version="1.0" encoding="UTF-8" standalone="no"?>
<!-- Generator: Adobe Illustrator 14.0.0, SVG Export Plug-In . SVG Version: 6.00 Build 43363)  -->

<svg
   xmlns:dc="http://purl.org/dc/elements/1.1/"
   xmlns:cc="http://creativecommons.org/ns#"
   xmlns:rdf="http://www.w3.org/1999/02/22-rdf-syntax-ns#"
   xmlns:svg="http://www.w3.org/2000/svg"
   xmlns="http://www.w3.org/2000/svg"
   xmlns:sodipodi="http://sodipodi.sourceforge.net/DTD/sodipodi-0.dtd"
   xmlns:inkscape="http://www.inkscape.org/namespaces/inkscape"
   version="1.0"
   id="Layer_1"
   x="0px"
   y="0px"
   width="100"
   height="100"
   viewBox="0 0 100 100"
   enable-background="new 0 0 91.849 100"
   xml:space="preserve"
   inkscape:version="0.48.1 r9760"
   sodipodi:docname="quitter.svg"
   inkscape:export-filename="/home/gcoulais/Immobilier/src/Qt/AgenceImmobiliere/images/quitter_96x96.png"
   inkscape:export-xdpi="86.400002"
   inkscape:export-ydpi="86.400002"><metadata
   id="metadata3029"><rdf:RDF><cc:Work
       rdf:about=""><dc:format>image/svg+xml</dc:format><dc:type
         rdf:resource="http://purl.org/dc/dcmitype/StillImage" /><dc:title></dc:title></cc:Work></rdf:RDF></metadata><defs
   id="defs3027" /><sodipodi:namedview
   pagecolor="#ffffff"
   bordercolor="#666666"
   borderopacity="1"
   objecttolerance="10"
   gridtolerance="10"
   guidetolerance="10"
   inkscape:pageopacity="0"
   inkscape:pageshadow="2"
   inkscape:window-width="1280"
   inkscape:window-height="776"
   id="namedview3025"
   showgrid="false"
   inkscape:zoom="2.88"
   inkscape:cx="-12.061612"
   inkscape:cy="50"
   inkscape:window-x="0"
   inkscape:window-y="24"
   inkscape:window-maximized="1"
   inkscape:current-layer="Layer_1" />

<g
   id="g3031"
   transform="translate(4.0765022,0)"><path
     inkscape:connector-curvature="0"
     id="path3021"
     d="M 0,53.572 C -0.016,40.7 5.321,30.962 10.48,24.78 l 0,0 c 5.187,-6.233 10.224,-9.236 10.676,-9.516 l 0,0 c 3.368,-1.993 7.697,-0.849 9.667,2.555 l 0,0 c 1.966,3.392 0.851,7.747 -2.489,9.75 l 0,0 0.001,0.001 c 0,0 -0.004,0.001 -0.015,0.008 l 0,0 c -0.009,0.004 -0.023,0.014 -0.042,0.026 l 0,0 c -0.068,0.042 -0.194,0.125 -0.367,0.244 l 0,0 c -0.351,0.234 -0.897,0.625 -1.572,1.162 l 0,0 c -1.349,1.073 -3.203,2.74 -5.029,4.945 l 0,0 c -3.669,4.467 -7.166,10.798 -7.181,19.616 l 0,0 c 0.003,8.889 3.547,16.882 9.314,22.722 l 0,0 c 5.78,5.83 13.687,9.416 22.48,9.418 l 0,0 c 8.793,-0.002 16.699,-3.588 22.478,-9.418 l 0,0 c 5.769,-5.84 9.313,-13.833 9.316,-22.722 l 0,0 C 77.701,45.023 74.423,38.828 70.88,34.376 l 0,0 c -3.373,-4.221 -6.982,-6.572 -7.341,-6.791 l 0,0 C 63.535,27.582 63.53,27.581 63.527,27.579 l 0,0 c -0.005,-0.003 -0.008,-0.005 -0.011,-0.006 l 0,0 C 63.513,27.57 63.509,27.57 63.509,27.57 l 0,0 0,0 c -3.336,-2.005 -4.452,-6.36 -2.488,-9.752 l 0,0 c 1.972,-3.404 6.3,-4.548 9.667,-2.555 l 0,0 c 0.454,0.279 5.491,3.282 10.678,9.516 l 0,0 c 5.162,6.183 10.496,15.92 10.481,28.792 l 0,0 C 91.843,79.208 71.283,99.991 45.924,100 l 0,0 C 20.565,99.991 0.006,79.208 0,53.572 l 0,0 z" /><path
     inkscape:connector-curvature="0"
     id="path3023"
     d="M 38.859,50.001 V 28.571 7.143 C 38.859,3.199 42.022,0 45.925,0 l 0,0 c 3.899,0 7.062,3.199 7.062,7.143 l 0,0 v 21.428 21.43 h 0.002 c 0,3.941 -3.165,7.141 -7.064,7.141 l 0,0 c -3.903,0 -7.066,-3.2 -7.066,-7.141 l 0,0 z" /></g>
</svg>