<?xml version="1.0" encoding="UTF-8" standalone="no"?>
<!-- Generator: Adobe Illustrator 15.1.0, SVG Export Plug-In . SVG Version: 6.00 Build 0)  -->

<svg
   xmlns:dc="http://purl.org/dc/elements/1.1/"
   xmlns:cc="http://creativecommons.org/ns#"
   xmlns:rdf="http://www.w3.org/1999/02/22-rdf-syntax-ns#"
   xmlns:svg="http://www.w3.org/2000/svg"
   xmlns="http://www.w3.org/2000/svg"
   xmlns:sodipodi="http://sodipodi.sourceforge.net/DTD/sodipodi-0.dtd"
   xmlns:inkscape="http://www.inkscape.org/namespaces/inkscape"
   version="1.1"
   id="Layer_1"
   x="0px"
   y="0px"
   width="100"
   height="100"
   viewBox="0 0 100 100"
   enable-background="new 0 0 96 100"
   xml:space="preserve"
   inkscape:version="0.48.1 r9760"
   sodipodi:docname="rafraichir.svg"
   inkscape:export-filename="/home/gcoulais/Immobilier/src/Qt/AgenceImmobiliere/images/rafraichir_96x96.png"
   inkscape:export-xdpi="86.400002"
   inkscape:export-ydpi="86.400002"><metadata
   id="metadata3075"><rdf:RDF><cc:Work
       rdf:about=""><dc:format>image/svg+xml</dc:format><dc:type
         rdf:resource="http://purl.org/dc/dcmitype/StillImage" /><dc:title></dc:title></cc:Work></rdf:RDF></metadata><defs
   id="defs3073" /><sodipodi:namedview
   pagecolor="#ffffff"
   bordercolor="#666666"
   borderopacity="1"
   objecttolerance="10"
   gridtolerance="10"
   guidetolerance="10"
   inkscape:pageopacity="0"
   inkscape:pageshadow="2"
   inkscape:window-width="1280"
   inkscape:window-height="776"
   id="namedview3071"
   showgrid="false"
   inkscape:zoom="2.88"
   inkscape:cx="-9.9861111"
   inkscape:cy="50"
   inkscape:window-x="0"
   inkscape:window-y="24"
   inkscape:window-maximized="1"
   inkscape:current-layer="Layer_1" />
<path
   d="M 85.803,13.197 C 76.896,5.009 65.023,0 52,0 24.43,0 2,22.43 2,50 c 0,27.57 22.43,50 50,50 13.763,0 26.243,-5.59 35.293,-14.618 L 77.398,75.487 C 70.883,81.979 61.902,86 52,86 32.149,86 16,69.851 16,50 16,30.149 32.149,14 52,14 c 9.164,0 17.533,3.447 23.895,9.105 L 64,35 H 84.713 98 V 30.414 1 L 85.803,13.197 z"
   id="path3069"
   inkscape:connector-curvature="0" />
</svg>