<?xml version="1.0" encoding="UTF-8" standalone="no"?>
<!-- Generator: Adobe Illustrator 14.0.0, SVG Export Plug-In . SVG Version: 6.00 Build 43363)  -->

<svg
   xmlns:dc="http://purl.org/dc/elements/1.1/"
   xmlns:cc="http://creativecommons.org/ns#"
   xmlns:rdf="http://www.w3.org/1999/02/22-rdf-syntax-ns#"
   xmlns:svg="http://www.w3.org/2000/svg"
   xmlns="http://www.w3.org/2000/svg"
   xmlns:sodipodi="http://sodipodi.sourceforge.net/DTD/sodipodi-0.dtd"
   xmlns:inkscape="http://www.inkscape.org/namespaces/inkscape"
   version="1.0"
   id="Layer_1"
   x="0px"
   y="0px"
   width="126"
   height="126"
   viewBox="0 0 126 126"
   enable-background="new 0 0 100 76.434"
   xml:space="preserve"
   inkscape:version="0.48.2 r9819"
   sodipodi:docname="souhait.svg"
   inkscape:export-filename="/home/spiquema/Documents/Immobilier/src/Qt/AgenceImmobiliere/images/souhait_48x48.png"
   inkscape:export-xdpi="34.285713"
   inkscape:export-ydpi="34.285713"><metadata
   id="metadata74"><rdf:RDF><cc:Work
       rdf:about=""><dc:format>image/svg+xml</dc:format><dc:type
         rdf:resource="http://purl.org/dc/dcmitype/StillImage" /><dc:title></dc:title></cc:Work></rdf:RDF></metadata><defs
   id="defs72">
	
	
	
	
	
	
	
	
	
	
<inkscape:perspective
   id="perspective12"
   inkscape:persp3d-origin="36.023678 : 42.499278 : 1"
   inkscape:vp_z="72.047356 : 63.748917 : 1"
   inkscape:vp_y="0 : 1000 : 0"
   inkscape:vp_x="0 : 63.748917 : 1"
   sodipodi:type="inkscape:persp3d" /></defs><sodipodi:namedview
   pagecolor="#ffffff"
   bordercolor="#666666"
   borderopacity="1"
   objecttolerance="10"
   gridtolerance="10"
   guidetolerance="10"
   inkscape:pageopacity="0"
   inkscape:pageshadow="2"
   inkscape:window-width="1280"
   inkscape:window-height="776"
   id="namedview70"
   showgrid="false"
   fit-margin-top="0"
   fit-margin-left="0"
   fit-margin-right="0"
   fit-margin-bottom="0"
   inkscape:zoom="3.3885444"
   inkscape:cx="2.9296415"
   inkscape:cy="38.216998"
   inkscape:window-x="0"
   inkscape:window-y="24"
   inkscape:window-maximized="1"
   inkscape:current-layer="Layer_1" />

<g
   id="g3159"
   transform="translate(5.5907123,-0.34713339)"><path
     inkscape:connector-curvature="0"
     id="path68"
     d="m 98.574,117.55601 c -2.116,-10.919 -31.236,-9.758 -38.254,-18.310008 -1.48,-1.805 -1.48,-1.805 -0.488,-8.507 1.694,-7.502 3.229,-2.846 5.651,-17.809 2.034,-12.566 -2.306,-23.364 -15.483,-23.364 -13.177,0 -17.517,10.798 -15.483,23.364 2.422,14.963 3.956,10.307 5.651,17.809 0.992,6.702 0.992,6.702 -0.488,8.507 C 32.662,107.79801 3.5420001,106.63701 1.4260001,117.55601 1.1750001,118.84801 0,126 0,126 l 100,0 c 0,0 -1.175,-7.15199 -1.426,-8.44399 z" /><circle
     transform="matrix(0.25002908,0,0,0.25002908,68.074537,51.251916)"
     cx="24.254"
     cy="45.334"
     r="9.0860004"
     id="circle3164"
     sodipodi:cx="24.254"
     sodipodi:cy="45.334"
     sodipodi:rx="9.0860004"
     sodipodi:ry="9.0860004"
     style="fill:#000000"
     d="m 33.34,45.334 c 0,5.018059 -4.067941,9.086 -9.086,9.086 -5.01806,0 -9.086001,-4.067941 -9.086001,-9.086 0,-5.01806 4.067941,-9.086001 9.086001,-9.086001 5.018059,0 9.086,4.067941 9.086,9.086001 z" /><path
     d="m 75.425236,16.169461 c 0,0 -1.900831,-4.719731 -8.850357,-4.455459 0,0 -10.02857,0.784558 -10.02857,10.29009 0,0 0.132136,10.094637 10.291465,10.094637 10.159329,0 38.474976,0 38.474976,0 0,0 9.50553,0.91807 9.50553,-10.028569 0,0 0.19682,-9.439464 -9.57023,-9.572977 0,0 -2.81752,-0.195451 -4.39214,0.788687 0,0 -1.70125,-12.65064376 -15.597555,-12.58732776 0,0 -9.900563,-0.589107 -15.01395,12.06291276"
     id="path3166"
     inkscape:connector-curvature="0"
     style="fill:#000000" /><circle
     transform="translate(43.287517,21.818732)"
     cx="37.987"
     cy="32.817001"
     r="3.6960001"
     id="circle3168"
     sodipodi:cx="37.987"
     sodipodi:cy="32.817001"
     sodipodi:rx="3.6960001"
     sodipodi:ry="3.6960001"
     style="fill:#000000"
     d="m 41.683,32.817001 c 0,2.041245 -1.654756,3.696 -3.696,3.696 -2.041245,0 -3.696001,-1.654755 -3.696001,-3.696 0,-2.041244 1.654756,-3.696 3.696001,-3.696 2.041244,0 3.696,1.654756 3.696,3.696 z" /><circle
     transform="matrix(1.4790779,0,0,1.4790779,26.445619,-7.2360307)"
     cx="37.987"
     cy="32.817001"
     r="3.6960001"
     id="circle3168-8"
     sodipodi:cx="37.987"
     sodipodi:cy="32.817001"
     sodipodi:rx="3.6960001"
     sodipodi:ry="3.6960001"
     style="fill:#000000"
     d="m 41.683,32.817001 c 0,2.041245 -1.654756,3.696 -3.696,3.696 -2.041245,0 -3.696001,-1.654755 -3.696001,-3.696 0,-2.041244 1.654756,-3.696 3.696001,-3.696 2.041244,0 3.696,1.654756 3.696,3.696 z" /></g></svg>