<?xml version="1.0" encoding="utf-8"?>
<!-- Generator: Adobe Illustrator 16.0.0, SVG Export Plug-In . SVG Version: 6.00 Build 0)  -->
<!DOCTYPE svg PUBLIC "-//W3C//DTD SVG 1.1//EN" "http://www.w3.org/Graphics/SVG/1.1/DTD/svg11.dtd">
<svg version="1.1" id="Layer_1" xmlns="http://www.w3.org/2000/svg" xmlns:xlink="http://www.w3.org/1999/xlink" x="0px" y="0px"
	 width="228px" height="95px" viewBox="0 0 228 95" enable-background="new 0 0 228 95" xml:space="preserve">
<g>
	<g>
		<path fill="#413000" d="M150.354,32.659c1.578,2.019,3.245,4.828,3.245,8.863c0,9.74-7.632,15.443-18.686,15.443
			c-2.811,0-5.356-0.35-6.934-0.789l-2.897,4.65l8.599,0.525c15.182,0.968,24.13,1.406,24.13,13.072
			c0,10.094-8.861,15.794-24.13,15.794c-15.881,0-21.936-4.037-21.936-10.967c0-3.95,1.756-6.052,4.826-8.952
			c-2.896-1.225-3.86-3.417-3.86-5.787c0-1.932,0.964-3.686,2.545-5.355c1.58-1.665,3.334-3.334,5.439-5.264
			c-4.298-2.105-7.546-6.668-7.546-13.163c0-10.089,6.669-17.019,20.093-17.019c3.772,0,6.056,0.348,8.074,0.877h17.11v7.457
			L150.354,32.659z M124.381,72.674c-1.142,1.402-2.281,2.892-2.281,4.649c0,3.508,4.474,4.562,10.617,4.562
			c5.09,0,12.021-0.355,12.021-5.088c0-2.812-3.335-2.986-7.548-3.251L124.381,72.674z M134.032,32.395
			c-4.827,0-8.423,2.37-8.423,8.075c0,4.298,2.37,7.283,8.162,7.283c4.91,0,8.246-2.894,8.246-7.46
			C142.018,35.116,139.033,32.395,134.032,32.395z"/>
		<path fill="#413000" d="M164.056,70.299V63.37l4.477-0.612c1.229-0.178,1.402-0.438,1.402-1.758V35.203
			c0-0.964-0.261-1.58-1.14-1.841l-4.739-1.669l0.966-7.105h18.163V61c0,1.406,0.087,1.58,1.406,1.758l4.476,0.612v6.929H164.056z
			 M175.376,17.568c-5.001,0-7.896-2.898-7.896-7.901c0-4.997,2.895-7.719,7.896-7.719c5.09,0,7.986,2.722,7.986,7.719
			C183.362,14.67,180.466,17.568,175.376,17.568z"/>
		<path fill="#413000" d="M225.601,67.846c-3.772,1.841-9.302,3.508-14.305,3.508c-10.441,0-14.388-4.208-14.388-14.127V34.239
			c0-0.525,0-0.877-0.703-0.877h-6.143v-7.81c7.723-0.879,10.792-4.741,11.758-14.305h8.336v12.464c0,0.612,0,0.877,0.703,0.877
			h12.371v8.774h-13.074v20.969c0,5.177,1.23,7.194,5.967,7.194c2.458,0,5.002-0.612,7.107-1.402L225.601,67.846z"/>
	</g>
	<g>
		<path fill="#F05133" d="M92.556,43.018L52.436,2.9c-2.309-2.311-6.056-2.311-8.368,0l-8.331,8.332l10.567,10.568
			c2.457-0.83,5.273-0.273,7.229,1.685c1.968,1.97,2.521,4.81,1.67,7.275l10.185,10.185c2.464-0.85,5.307-0.3,7.275,1.671
			c2.75,2.75,2.75,7.206,0,9.958c-2.751,2.751-7.208,2.751-9.96,0c-2.068-2.07-2.58-5.11-1.532-7.658l-9.499-9.499l-0.001,24.997
			c0.671,0.332,1.304,0.774,1.862,1.332c2.75,2.75,2.75,7.206,0,9.959c-2.75,2.75-7.208,2.75-9.957,0c-2.75-2.754-2.75-7.21,0-9.959
			c0.68-0.679,1.466-1.193,2.306-1.537V34.978c-0.84-0.344-1.625-0.853-2.306-1.537c-2.083-2.082-2.584-5.14-1.516-7.698
			L31.643,15.324L4.134,42.832c-2.311,2.313-2.311,6.06,0,8.371l40.12,40.118c2.31,2.311,6.056,2.311,8.369,0l39.933-39.932
			C94.867,49.077,94.867,45.328,92.556,43.018z"/>
	</g>
</g>
</svg>
