<?xml version="1.0" encoding="UTF-8" standalone="no"?>
<!-- Created with Inkscape (http://www.inkscape.org/) -->

<svg
   xmlns:dc="http://purl.org/dc/elements/1.1/"
   xmlns:cc="http://creativecommons.org/ns#"
   xmlns:rdf="http://www.w3.org/1999/02/22-rdf-syntax-ns#"
   xmlns:svg="http://www.w3.org/2000/svg"
   xmlns="http://www.w3.org/2000/svg"
   xmlns:sodipodi="http://sodipodi.sourceforge.net/DTD/sodipodi-0.dtd"
   xmlns:inkscape="http://www.inkscape.org/namespaces/inkscape"
   width="523.05255"
   height="463.93643"
   id="svg2"
   version="1.1"
   inkscape:version="0.48.1 r9760"
   sodipodi:docname="MCT_en.svg"
   inkscape:export-filename="/home/gcoulais/Immobilier/docs/Rapport/Images/MCT_en.png"
   inkscape:export-xdpi="86.400002"
   inkscape:export-ydpi="86.400002">
  <defs
     id="defs4">
    <marker
       inkscape:stockid="Arrow1Lend"
       orient="auto"
       refY="0.0"
       refX="0.0"
       id="Arrow1Lend"
       style="overflow:visible;">
      <path
         id="path4356"
         d="M 0.0,0.0 L 5.0,-5.0 L -12.5,0.0 L 5.0,5.0 L 0.0,0.0 z "
         style="fill-rule:evenodd;stroke:#000000;stroke-width:1.0pt;marker-start:none;"
         transform="scale(0.8) rotate(180) translate(12.5,0)" />
    </marker>
  </defs>
  <sodipodi:namedview
     id="base"
     pagecolor="#ffffff"
     bordercolor="#666666"
     borderopacity="1.0"
     inkscape:pageopacity="0.0"
     inkscape:pageshadow="2"
     inkscape:zoom="1.2587931"
     inkscape:cx="285.54567"
     inkscape:cy="278.56157"
     inkscape:document-units="px"
     inkscape:current-layer="layer1"
     showgrid="false"
     fit-margin-top="0"
     fit-margin-left="0"
     fit-margin-right="0"
     fit-margin-bottom="0"
     inkscape:window-width="1280"
     inkscape:window-height="776"
     inkscape:window-x="0"
     inkscape:window-y="24"
     inkscape:window-maximized="1" />
  <metadata
     id="metadata7">
    <rdf:RDF>
      <cc:Work
         rdf:about="">
        <dc:format>image/svg+xml</dc:format>
        <dc:type
           rdf:resource="http://purl.org/dc/dcmitype/StillImage" />
        <dc:title></dc:title>
      </cc:Work>
    </rdf:RDF>
  </metadata>
  <g
     inkscape:label="Calque 1"
     inkscape:groupmode="layer"
     id="layer1"
     transform="translate(-23.875,-648.85705)">
    <g
       id="g3855"
       transform="translate(-329.0319,-255.8071)">
      <rect
         ry="8.5714312"
         rx="8.5714312"
         y="718.07648"
         x="129.28571"
         height="180"
         width="141.42857"
         id="rect2985"
         style="fill:none;stroke:#000000;stroke-width:3;stroke-miterlimit:4;stroke-opacity:1;stroke-dasharray:none" />
      <rect
         ry="8.5714312"
         rx="8.5714312"
         y="718.07648"
         x="129.28571"
         height="55.71426"
         width="141.42859"
         id="rect2985-7"
         style="fill:none;stroke:#000000;stroke-width:3;stroke-miterlimit:4;stroke-opacity:1;stroke-dasharray:none" />
      <text
         sodipodi:linespacing="125%"
         id="text3773"
         y="747.67572"
         x="152.20654"
         style="font-size:28.19086075px;font-style:normal;font-weight:normal;line-height:125%;letter-spacing:0px;word-spacing:0px;fill:#000000;fill-opacity:1;stroke:none;font-family:Sans"
         xml:space="preserve"><tspan
           y="747.67572"
           x="152.20654"
           id="tspan3775"
           sodipodi:role="line">Object</tspan></text>
      <rect
         ry="8.5714312"
         rx="8.5714312"
         y="822.36218"
         x="129.28571"
         height="75.714272"
         width="141.42859"
         id="rect2985-7-1"
         style="fill:none;stroke:#000000;stroke-width:3;stroke-miterlimit:4;stroke-opacity:1;stroke-dasharray:none" />
      <rect
         ry="0"
         rx="0"
         y="759.14789"
         x="129.28571"
         height="74.285713"
         width="141.42859"
         id="rect2985-7-1-8"
         style="fill:#ffffff;stroke:#000000;stroke-width:3;stroke-miterlimit:4;stroke-opacity:1;stroke-dasharray:none" />
      <text
         sodipodi:linespacing="125%"
         id="text3773-5"
         y="800.80688"
         x="143.56729"
         style="font-size:21.54821968px;font-style:italic;font-variant:normal;font-weight:normal;font-stretch:normal;text-align:start;line-height:125%;letter-spacing:0px;word-spacing:0px;writing-mode:lr-tb;text-anchor:start;fill:#000000;fill-opacity:1;stroke:none;font-family:Sans;-inkscape-font-specification:Sans Italic"
         xml:space="preserve"><tspan
           y="800.80688"
           x="143.56729"
           id="tspan3775-4"
           sodipodi:role="line">Properties</tspan></text>
      <text
         sodipodi:linespacing="125%"
         id="text3773-5-8"
         y="869.73547"
         x="152.00562"
         style="font-size:21.54821968px;font-style:italic;font-variant:normal;font-weight:normal;font-stretch:normal;text-align:start;line-height:125%;letter-spacing:0px;word-spacing:0px;writing-mode:lr-tb;text-anchor:start;fill:#000000;fill-opacity:1;stroke:none;font-family:Sans;-inkscape-font-specification:Sans Italic"
         xml:space="preserve"><tspan
           y="869.73547"
           x="152.00562"
           id="tspan3775-4-9"
           sodipodi:role="line">Methods</tspan></text>
    </g>
    <g
       id="g4031"
       transform="translate(-459.27334,120)">
      <text
         sodipodi:linespacing="125%"
         id="text3951"
         y="1021.164"
         x="289.57614"
         style="font-size:21.54821968px;font-style:italic;font-variant:normal;font-weight:bold;font-stretch:normal;text-align:start;line-height:125%;letter-spacing:0px;word-spacing:0px;writing-mode:lr-tb;text-anchor:start;fill:#008000;fill-opacity:1;stroke:none;font-family:Sans;-inkscape-font-specification:Sans Bold Italic"
         xml:space="preserve"><tspan
           y="1021.164"
           x="289.57614"
           id="tspan3953"
           sodipodi:role="line">Slots</tspan></text>
      <rect
         ry="8.5714312"
         rx="8.5714312"
         y="745.2193"
         x="246.42856"
         height="294.99994"
         width="141.42856"
         id="rect2985-0"
         style="fill:none;stroke:#000000;stroke-width:3;stroke-miterlimit:4;stroke-opacity:1;stroke-dasharray:none" />
      <rect
         ry="8.5714312"
         rx="8.5714312"
         y="745.2193"
         x="246.42856"
         height="55.71426"
         width="141.42859"
         id="rect2985-7-8"
         style="fill:none;stroke:#000000;stroke-width:3;stroke-miterlimit:4;stroke-opacity:1;stroke-dasharray:none" />
      <text
         sodipodi:linespacing="125%"
         id="text3773-3"
         y="779.81854"
         x="269.30203"
         style="font-size:28.19086075px;font-style:normal;font-weight:normal;line-height:125%;letter-spacing:0px;word-spacing:0px;fill:#000000;fill-opacity:1;stroke:none;font-family:Sans"
         xml:space="preserve"><tspan
           y="779.81854"
           x="269.30203"
           id="tspan3775-6"
           sodipodi:role="line">Object</tspan></text>
      <rect
         ry="8.5714312"
         rx="8.5714312"
         y="964.505"
         x="246.42856"
         height="75.714272"
         width="141.42859"
         id="rect2985-7-1-9"
         style="fill:none;stroke:#000000;stroke-width:3;stroke-miterlimit:4;stroke-opacity:1;stroke-dasharray:none" />
      <rect
         ry="0"
         rx="0"
         y="790.57642"
         x="246.42856"
         height="74.285713"
         width="141.42859"
         id="rect2985-7-1-8-7"
         style="fill:#ffffff;stroke:#000000;stroke-width:3;stroke-miterlimit:4;stroke-opacity:1;stroke-dasharray:none" />
      <text
         sodipodi:linespacing="125%"
         id="text3773-5-85"
         y="832.94971"
         x="260.71014"
         style="font-size:21.54821968px;font-style:italic;font-variant:normal;font-weight:normal;font-stretch:normal;text-align:start;line-height:125%;letter-spacing:0px;word-spacing:0px;writing-mode:lr-tb;text-anchor:start;fill:#000000;fill-opacity:1;stroke:none;font-family:Sans;-inkscape-font-specification:Sans Italic"
         xml:space="preserve"><tspan
           y="832.94971"
           x="260.71014"
           id="tspan3775-4-4"
           sodipodi:role="line">Properties</tspan></text>
      <rect
         style="fill:#ffffff;stroke:#000000;stroke-width:3;stroke-miterlimit:4;stroke-opacity:1;stroke-dasharray:none"
         id="rect3943"
         width="141.42859"
         height="74.285713"
         x="246.42856"
         y="853.43353"
         rx="0"
         ry="0" />
      <text
         sodipodi:linespacing="125%"
         id="text3773-5-8-2"
         y="896.8783"
         x="269.56934"
         style="font-size:21.54821968px;font-style:italic;font-variant:normal;font-weight:normal;font-stretch:normal;text-align:start;line-height:125%;letter-spacing:0px;word-spacing:0px;writing-mode:lr-tb;text-anchor:start;fill:#000000;fill-opacity:1;stroke:none;font-family:Sans;-inkscape-font-specification:Sans Italic"
         xml:space="preserve"><tspan
           y="896.8783"
           x="269.56934"
           id="tspan3775-4-9-8"
           sodipodi:role="line">Methods</tspan></text>
      <rect
         ry="0"
         rx="0"
         y="915.57642"
         x="246.42856"
         height="74.285713"
         width="141.42859"
         id="rect3945"
         style="fill:#ffffff;stroke:#000000;stroke-width:3;stroke-miterlimit:4;stroke-opacity:1;stroke-dasharray:none" />
      <text
         xml:space="preserve"
         style="font-size:21.54821968px;font-style:italic;font-variant:normal;font-weight:bold;font-stretch:normal;text-align:start;line-height:125%;letter-spacing:0px;word-spacing:0px;writing-mode:lr-tb;text-anchor:start;fill:#008000;fill-opacity:1;stroke:none;font-family:Sans;-inkscape-font-specification:Sans Bold Italic"
         x="277.11856"
         y="961.164"
         id="text3947"
         sodipodi:linespacing="125%"><tspan
           sodipodi:role="line"
           id="tspan3949"
           x="277.11856"
           y="961.164">Signals</tspan></text>
      <text
         sodipodi:linespacing="125%"
         id="text3955"
         y="1017.9141"
         x="167.34035"
         style="font-size:139.73445129px;font-style:normal;font-weight:normal;line-height:125%;letter-spacing:0px;word-spacing:0px;fill:#000000;fill-opacity:1;stroke:none;font-family:Sans"
         xml:space="preserve"><tspan
           y="1017.9141"
           x="167.34035"
           id="tspan3957"
           sodipodi:role="line">{</tspan></text>
      <g
         transform="matrix(0.46996385,0,0,0.46996385,91.014887,930.2317)"
         id="g4022">
        <rect
           width="136.69954"
           height="147.69836"
           x="24.354517"
           y="28.282665"
           id="rect2998"
           style="fill:#ffffff;fill-opacity:1;stroke:none" />
        <g
           transform="translate(-46.4049,32.5083)"
           id="layer1-1">
          <g
             transform="translate(432,-133)"
             id="g2396">
            <path
               inkscape:connector-curvature="0"
               d="m -378.33328,299.25358 -7.26184,-6.67711 0.0118,-84.71249 c 0.0117,-83.62609 0.0388,-84.78455 2.11435,-90.33196 4.43707,-11.85913 11.10713,-15.89306 27.89749,-16.87189 10.06981,-0.58704 13.18358,-0.16957 76,10.18948 l 65.5,10.8016 0,69.96263 c 0,53.90228 -0.29319,70.92859 -1.27722,74.17058 -1.56788,5.16554 -6.72925,12.10273 -10.73743,14.43174 -1.98699,1.15457 -26.06029,5.60398 -71.98535,13.30489 -37.95,6.36361 -69.9,11.75908 -71,11.98992 -1.4051,0.29487 -4.16003,-1.56638 -9.26184,-6.25739 z m 91.38684,-23.17711 c 2.25641,0 2.375,-0.32456 2.375,-6.5 0,-5.78113 -0.21599,-6.5 -1.95295,-6.5 -3.70388,0 -6.85214,-2.24136 -8.60347,-6.12513 -0.96609,-2.14239 -1.57361,-4.03559 -1.35005,-4.2071 0.22356,-0.17151 2.53288,-1.52939 5.13182,-3.01751 12.90306,-7.38812 18.68728,-23.96169 18.72409,-53.65026 0.0443,-35.70973 -8.94704,-52.63835 -30.26591,-56.98381 -6.70354,-1.3664 -14.30708,-0.63312 -20.27292,1.95511 -8.91148,3.86617 -15.69871,14.21474 -19.03883,29.0287 -2.37545,10.5355 -2.34662,39.37509 0.0505,50.5 3.51644,16.31976 11.81536,28.41254 21.77764,31.7333 3.68933,1.22977 4.20364,1.83831 5.7544,6.80859 2.41185,7.73016 4.56676,11.48088 8.00116,13.92639 3.43513,2.44602 10.23575,4.07656 14.41955,3.45728 1.58125,-0.23406 3.94375,-0.42556 5.25,-0.42556 z m -22.60906,-37.30473 c -3.04896,-1.52007 -6.70937,-6.83665 -7.98395,-11.59631 -4.16759,-15.56307 -3.81851,-54.0943 0.58989,-65.11198 2.00113,-5.00129 6.62237,-8.98698 10.42005,-8.98698 4.20244,0 9.48751,5.06719 11.45111,10.97905 3.47238,10.45434 4.05746,45.54877 1.00529,60.29934 -2.42686,11.72859 -8.85965,17.71867 -15.48239,14.41688 z m 66.98406,7.25641 c 9.46242,-2.10155 10,-2.56605 10,-8.64039 0,-4.71812 -0.23391,-5.37657 -1.75,-4.92617 -5.99778,1.78186 -7.39498,1.79365 -9.29029,0.0784 -1.84998,-1.6742 -1.95971,-3.22064 -1.95971,-27.61852 l 0,-25.84501 6,0 6,0 0,-5.87083 0,-5.87084 -6,-0.67882 -6,-0.67882 0,-9.39133 c 0,-5.16523 -0.3375,-9.59681 -0.75,-9.84796 -0.4125,-0.25114 -2.9657,-0.6152 -5.67377,-0.80901 l -4.92378,-0.35239 -1.71558,7 c -0.94357,3.85 -1.99895,8.2375 -2.34528,9.75 -0.53873,2.35272 -1.13256,2.75 -4.11064,2.75 l -3.48095,0 0,6.5 0,6.5 3,0 3,0 0,29.03984 c 0,35.48318 0.3987,36.84529 11.5,39.28807 3.19245,0.70248 3.75518,0.67757 8.5,-0.37623 z"
               id="path2400"
               style="fill:#7cc040" />
            <path
               inkscape:connector-curvature="0"
               d="m -378.85274,298.29747 -5.7187,-5.77899 0,-85.35499 c 0,-61.88383 0.31913,-86.42015 1.16056,-89.22858 1.48069,-4.94212 6.97518,-11.37688 11.82873,-13.85298 2.07592,-1.05905 6.86507,-2.17885 10.64255,-2.48844 5.07942,-0.41629 6.2698,-0.30029 4.57064,0.4454 -4.94565,2.17044 -9.27463,6.48477 -11.92778,11.88743 l -2.7747,5.65015 -0.27987,92.25 c -0.15393,50.7375 -0.61802,92.25 -1.03131,92.25 -0.41328,0 -3.32484,-2.60055 -6.47012,-5.779 z m 71.06515,-22.41569 c -4.72952,-1.25739 -9.9682,-6.99399 -12.23849,-13.40172 -0.95556,-2.69697 -2.09542,-5.83025 -2.53302,-6.96284 -0.47618,-1.23245 -2.41587,-2.54468 -4.83102,-3.26828 -8.94116,-2.67884 -17.28444,-14.70117 -20.9091,-30.1292 -2.60283,-11.07867 -2.53035,-44.63455 0.1178,-54.54327 4.04993,-15.15377 11.74578,-24.97801 21.93753,-28.00463 6.56814,-1.95053 10.5804,-1.83637 4.99668,0.14217 -9.40476,3.33248 -16.3244,12.40347 -20.51453,26.89258 -2.09438,7.24219 -2.29813,9.88728 -2.23155,28.96988 0.0632,18.12683 0.36179,22.04722 2.18212,28.65411 4.10071,14.88354 10.26665,23.43542 20.10186,27.88038 4.5157,2.04084 5.29584,2.83845 6.25298,6.39301 2.27779,8.45903 6.80455,14.60181 12.68316,17.21094 2.15525,0.95658 2.29719,1.19465 0.70173,1.17699 -1.1,-0.0122 -3.67227,-0.46673 -5.71615,-1.01012 z m 47.30981,-30.11175 c -7.88148,-2.76162 -9.09366,-8.3944 -9.09366,-42.25673 0,-22.83622 -0.16216,-25.32156 -1.67124,-25.61351 -1.16362,-0.22511 -2.03969,-2.14578 -2.88427,-6.32332 -0.66716,-3.3 -1.01354,-6.3375 -0.76974,-6.75 0.24381,-0.4125 1.54173,-0.75 2.88427,-0.75 2.3555,0 2.44098,0.24513 2.44098,7 l 0,7 2.94445,0 2.94446,0 0.30554,29.25 c 0.33915,32.46628 0.5938,33.82092 7.1041,37.79048 2.49688,1.52244 2.76129,1.94044 1.20145,1.89934 -1.1,-0.029 -3.53285,-0.58981 -5.40634,-1.24626 z m -45.8338,-9.44356 c 5.64105,-5.88938 7.74014,-16.98166 7.74014,-40.90141 0,-22.89925 -2.73061,-35.94521 -8.34695,-39.87905 -2.03937,-1.42843 -2.01168,-1.46954 0.98958,-1.46954 10.23612,0 14.05235,14.15285 13.07774,48.5 -0.54192,19.09814 -1.79461,26.63129 -5.32436,32.01836 -1.6232,2.47731 -5.48286,4.48164 -8.63015,4.48164 -2.06696,0 -2.05009,-0.0939 0.494,-2.75 z m 65.24014,-4.25 c 1.1,-0.47269 3.35,-0.85943 5,-0.85943 2.55762,0 2.70508,0.12673 1,0.85943 -1.1,0.47269 -3.35,0.85943 -5,0.85943 -2.55762,0 -2.70508,-0.12673 -1,-0.85943 z m -26.20254,-69.25 c 4.3707,-19.12226 3.82937,-17.75 7.00201,-17.75 2.53638,0 2.85533,0.30004 2.35456,2.215 -0.31858,1.21824 -1.33616,5.71824 -2.26129,10 -1.63858,7.58382 -1.75864,7.785 -4.6458,7.785 -2.55924,0 -2.89356,-0.3071 -2.44948,-2.25 z"
               id="path2398"
               style="fill:#016123" />
          </g>
        </g>
      </g>
    </g>
    <text
       xml:space="preserve"
       style="font-size:21.21177483px;font-style:normal;font-variant:normal;font-weight:normal;font-stretch:normal;text-align:center;line-height:125%;letter-spacing:0px;word-spacing:0px;writing-mode:lr-tb;text-anchor:middle;fill:#000000;fill-opacity:1;stroke:none;font-family:Sans;-inkscape-font-specification:Sans"
       x="576.51483"
       y="1174.973"
       id="text4057"
       sodipodi:linespacing="125%"><tspan
         sodipodi:role="line"
         id="tspan4059"
         x="576.51483"
         y="1174.973">Object oriented development</tspan><tspan
         sodipodi:role="line"
         x="576.51483"
         y="1201.4878"
         id="tspan4073">with Qt</tspan></text>
    <text
       sodipodi:linespacing="125%"
       id="text4075"
       y="569.83014"
       x="197.94342"
       style="font-size:21.21177483px;font-style:normal;font-variant:normal;font-weight:normal;font-stretch:normal;text-align:center;line-height:125%;letter-spacing:0px;word-spacing:0px;writing-mode:lr-tb;text-anchor:middle;fill:#000000;fill-opacity:1;stroke:none;font-family:Sans;-inkscape-font-specification:Sans"
       xml:space="preserve"><tspan
         id="tspan4079"
         y="569.83014"
         x="197.94342"
         sodipodi:role="line">Object oriented development</tspan></text>
    <g
       id="g4155"
       transform="translate(44.487055,-11.916175)">
      <path
         transform="translate(82.446429,731.71419)"
         d="m 230.30683,-34.634998 c 0,18.146499 -23.80232,32.8571431 -53.16398,32.8571431 -29.36165,0 -53.16397,-14.7106441 -53.16397,-32.8571431 0,-18.1465 23.80232,-32.857144 53.16397,-32.857144 29.36166,0 53.16398,14.710644 53.16398,32.857144 z"
         sodipodi:ry="32.857143"
         sodipodi:rx="53.163975"
         sodipodi:cy="-34.634998"
         sodipodi:cx="177.14285"
         id="path4121"
         style="fill:#ffffff;fill-opacity:1;stroke:#000000;stroke-width:3;stroke-miterlimit:4;stroke-opacity:1;stroke-dasharray:none;stroke-dashoffset:0"
         sodipodi:type="arc" />
      <text
         sodipodi:linespacing="125%"
         id="text4123"
         y="707.24652"
         x="217.76018"
         style="font-size:28.44629669px;font-style:normal;font-weight:normal;line-height:125%;letter-spacing:0px;word-spacing:0px;fill:#000000;fill-opacity:1;stroke:none;font-family:Sans"
         xml:space="preserve"><tspan
           y="707.24652"
           x="217.76018"
           id="tspan4125"
           sodipodi:role="line">Event</tspan></text>
    </g>
    <g
       id="g4832"
       transform="translate(0,30.982056)">
      <rect
         y="771.12457"
         x="206.71266"
         height="34.345184"
         width="193.83513"
         id="rect4127"
         style="fill:#ffffff;fill-opacity:1;stroke:#000000;stroke-width:3;stroke-miterlimit:4;stroke-opacity:1;stroke-dasharray:none;stroke-dashoffset:0" />
      <text
         xml:space="preserve"
         style="font-size:28.44629669px;font-style:normal;font-weight:normal;line-height:125%;letter-spacing:0px;word-spacing:0px;fill:#000000;fill-opacity:1;stroke:none;font-family:Sans"
         x="231.56993"
         y="797.69171"
         id="text4129"
         sodipodi:linespacing="125%"><tspan
           sodipodi:role="line"
           id="tspan4131"
           x="231.56993"
           y="797.69171">Treatment</tspan></text>
      <rect
         style="fill:#ffffff;fill-opacity:1;stroke:#000000;stroke-width:3;stroke-miterlimit:4;stroke-opacity:1;stroke-dasharray:none;stroke-dashoffset:0"
         id="rect4133"
         width="193.83513"
         height="70.205589"
         x="206.71266"
         y="808.46985" />
      <text
         sodipodi:linespacing="125%"
         id="text4135"
         y="838.60291"
         x="231.56993"
         style="font-size:28.44629669px;font-style:normal;font-weight:normal;line-height:125%;letter-spacing:0px;word-spacing:0px;fill:#000000;fill-opacity:1;stroke:none;font-family:Sans"
         xml:space="preserve"><tspan
           y="838.60291"
           x="231.56993"
           id="tspan4137"
           sodipodi:role="line">Action 1</tspan></text>
      <text
         xml:space="preserve"
         style="font-size:28.44629669px;font-style:normal;font-weight:normal;line-height:125%;letter-spacing:0px;word-spacing:0px;fill:#000000;fill-opacity:1;stroke:none;font-family:Sans"
         x="231.56993"
         y="866.38208"
         id="text4139"
         sodipodi:linespacing="125%"><tspan
           sodipodi:role="line"
           id="tspan4141"
           x="231.56993"
           y="866.38208">Action 2</tspan></text>
      <rect
         y="878.67542"
         x="206.71266"
         height="26.263931"
         width="193.83513"
         id="rect4143"
         style="fill:#ffffff;fill-opacity:1;stroke:#000000;stroke-width:3;stroke-miterlimit:4;stroke-opacity:1;stroke-dasharray:none;stroke-dashoffset:0" />
      <rect
         style="fill:#ffffff;fill-opacity:1;stroke:#000000;stroke-width:3;stroke-miterlimit:4;stroke-opacity:1;stroke-dasharray:none;stroke-dashoffset:0"
         id="rect4153"
         width="100.39602"
         height="26.263916"
         x="206.71266"
         y="878.67542" />
      <text
         sodipodi:linespacing="125%"
         id="text4145"
         y="898.20312"
         x="212.51387"
         style="font-size:15.81715584px;font-style:normal;font-weight:normal;line-height:125%;letter-spacing:0px;word-spacing:0px;fill:#000000;fill-opacity:1;stroke:none;font-family:Sans"
         xml:space="preserve"><tspan
           y="898.20312"
           x="212.51387"
           id="tspan4147"
           sodipodi:role="line">result1:Ok</tspan></text>
      <text
         xml:space="preserve"
         style="font-size:15.81715584px;font-style:normal;font-weight:normal;line-height:125%;letter-spacing:0px;word-spacing:0px;fill:#000000;fill-opacity:1;stroke:none;font-family:Sans"
         x="312.51898"
         y="898.20312"
         id="text4149"
         sodipodi:linespacing="125%"><tspan
           sodipodi:role="line"
           id="tspan4151"
           x="312.51898"
           y="898.20312">result2:Ko</tspan></text>
    </g>
    <g
       id="g4160"
       transform="translate(-68.185297,335.37065)">
      <path
         sodipodi:type="arc"
         style="fill:#ffffff;fill-opacity:1;stroke:#000000;stroke-width:3;stroke-miterlimit:4;stroke-opacity:1;stroke-dasharray:none;stroke-dashoffset:0"
         id="path4162"
         sodipodi:cx="177.14285"
         sodipodi:cy="-34.634998"
         sodipodi:rx="53.163975"
         sodipodi:ry="32.857143"
         d="m 230.30683,-34.634998 c 0,18.146499 -23.80232,32.8571431 -53.16398,32.8571431 -29.36165,0 -53.16397,-14.7106441 -53.16397,-32.8571431 0,-18.1465 23.80232,-32.857144 53.16397,-32.857144 29.36166,0 53.16398,14.710644 53.16398,32.857144 z"
         transform="translate(82.446429,731.71419)" />
      <text
         xml:space="preserve"
         style="font-size:16.0953598px;font-style:normal;font-weight:normal;line-height:125%;letter-spacing:0px;word-spacing:0px;fill:#000000;fill-opacity:1;stroke:none;font-family:Sans"
         x="228.50529"
         y="691.50745"
         id="text4164"
         sodipodi:linespacing="125%"><tspan
           sodipodi:role="line"
           id="tspan4166"
           x="228.50529"
           y="691.50745">Result1</tspan><tspan
           sodipodi:role="line"
           x="228.50529"
           y="711.62665"
           id="tspan4848">Event</tspan></text>
    </g>
    <path
       style="fill:none;stroke:#000000;stroke-width:1px;stroke-linecap:butt;stroke-linejoin:miter;stroke-opacity:1;marker-start:none;marker-end:url(#Arrow1Lend)"
       d="m 228.0001,293.90318 -52.23356,55.38094"
       id="path4168"
       inkscape:connector-curvature="0"
       transform="translate(23.875,648.85705)"
       sodipodi:nodetypes="cc" />
    <path
       inkscape:connector-curvature="0"
       id="path4794"
       d="m 361.27099,941.96582 53.02797,56.17535"
       style="fill:none;stroke:#000000;stroke-width:1px;stroke-linecap:butt;stroke-linejoin:miter;stroke-opacity:1;marker-start:none;marker-end:url(#Arrow1Lend)"
       sodipodi:nodetypes="cc" />
    <g
       transform="translate(161.39968,335.37065)"
       id="g4853">
      <path
         transform="translate(82.446429,731.71419)"
         d="m 230.30683,-34.634998 c 0,18.146499 -23.80232,32.8571431 -53.16398,32.8571431 -29.36165,0 -53.16397,-14.7106441 -53.16397,-32.8571431 0,-18.1465 23.80232,-32.857144 53.16397,-32.857144 29.36166,0 53.16398,14.710644 53.16398,32.857144 z"
         sodipodi:ry="32.857143"
         sodipodi:rx="53.163975"
         sodipodi:cy="-34.634998"
         sodipodi:cx="177.14285"
         id="path4855"
         style="fill:#ffffff;fill-opacity:1;stroke:#000000;stroke-width:3;stroke-miterlimit:4;stroke-opacity:1;stroke-dasharray:none;stroke-dashoffset:0"
         sodipodi:type="arc" />
      <text
         sodipodi:linespacing="125%"
         id="text4857"
         y="691.50745"
         x="228.50529"
         style="font-size:16.0953598px;font-style:normal;font-weight:normal;line-height:125%;letter-spacing:0px;word-spacing:0px;fill:#000000;fill-opacity:1;stroke:none;font-family:Sans"
         xml:space="preserve"><tspan
           y="691.50745"
           x="228.50529"
           id="tspan4859"
           sodipodi:role="line">Result2</tspan><tspan
           id="tspan4861"
           y="711.62665"
           x="228.50529"
           sodipodi:role="line">Event</tspan></text>
    </g>
    <path
       sodipodi:nodetypes="cc"
       style="fill:none;stroke:#000000;stroke-width:1px;stroke-linecap:butt;stroke-linejoin:miter;stroke-opacity:1;marker-start:none;marker-end:url(#Arrow1Lend)"
       d="m 304.07335,722.70819 0.5968,53.71227"
       id="path4863"
       inkscape:connector-curvature="0" />
    <path
       style="fill:#ffffff;fill-opacity:1;stroke:#000000;stroke-width:3;stroke-miterlimit:4;stroke-opacity:1;stroke-dashoffset:0"
       d="m 280.01266,782.11176 48.84464,0 -16.57115,19.79557 -14.85974,0 z"
       id="rect4865"
       inkscape:connector-curvature="0"
       sodipodi:nodetypes="ccccc" />
  </g>
</svg>
